<svg xmlns="http://www.w3.org/2000/svg" width="1443" height="727" viewBox="0 0 1443 727">
<g>
<path d="M 837.03 696.25 L 829.23 727.00 L 822.59 727.00 L 830.30 696.63 C834.53,679.93 838.00,665.99 838.00,665.67 C838.00,665.35 834.29,664.95 829.75,664.79 L 821.50 664.50 L 820.87 658.00 L 836.94 658.00 C852.93,658.00 853.00,657.99 853.00,655.75 C852.99,654.51 852.12,646.08 851.05,637.00 C848.34,614.02 846.00,587.48 846.00,579.70 C846.00,574.03 846.37,572.72 848.73,569.91 C850.23,568.12 853.47,565.39 855.93,563.83 L 860.39 561.00 L 853.32 561.00 L 843.91 540.00 L 834.50 519.00 L 829.75 519.00 C826.20,519.00 825.00,518.62 825.00,517.50 C825.00,516.37 823.78,516.00 820.00,516.00 C816.22,516.00 815.00,516.37 815.00,517.50 C815.00,518.33 814.33,519.00 813.50,519.00 C812.30,519.00 812.00,517.50 812.00,511.50 L 812.00 504.00 L 800.00 504.00 L 800.00 511.50 C800.00,515.62 799.81,519.00 799.58,519.00 C799.35,519.00 798.45,519.27 797.58,519.61 C796.45,520.04 796.00,519.62 796.00,518.11 C796.00,516.25 795.42,516.00 791.15,516.00 L 786.30 516.00 L 785.65 526.66 C785.29,532.52 785.00,545.09 785.00,554.60 C785.00,565.04 784.60,572.13 784.00,572.50 C783.34,572.91 783.00,561.34 783.00,538.56 L 783.00 504.00 L 770.00 504.00 L 770.00 573.00 L 758.00 573.00 L 758.00 567.50 C758.00,564.47 758.45,562.00 759.00,562.00 C759.55,562.00 760.00,559.53 760.00,556.50 L 760.00 551.00 L 752.00 551.00 L 752.00 540.97 L 696.50 541.50 L 696.50 551.50 L 705.00 552.11 L 705.00 560.89 L 696.50 561.50 L 696.20 567.25 L 695.90 573.00 L 686.00 573.00 L 686.00 515.00 L 676.00 515.00 L 676.00 544.08 C676.00,566.91 675.73,573.08 674.75,572.75 C673.80,572.44 673.44,566.12 673.23,546.67 L 672.97 521.00 L 655.00 521.00 L 655.00 547.00 C655.00,563.67 654.64,573.00 654.00,573.00 C653.36,573.00 653.00,562.83 653.00,544.50 L 653.00 516.00 L 643.00 516.00 L 643.00 544.58 C643.00,567.01 642.73,573.08 641.75,572.75 C640.79,572.43 640.44,564.42 640.24,538.17 L 639.97 504.00 L 628.00 504.00 L 628.00 537.94 C628.00,559.49 627.63,572.11 627.00,572.50 C626.34,572.91 626.00,564.51 626.00,548.06 L 626.00 523.00 L 606.03 523.00 L 605.77 547.74 C605.52,570.38 605.35,572.50 603.75,572.81 C602.11,573.12 602.00,571.15 602.00,542.62 L 602.00 512.09 L 598.75 511.58 C596.96,511.29 594.38,511.16 593.00,511.28 L 590.50 511.50 L 590.24 542.25 C590.07,561.60 589.61,573.00 588.99,573.00 C588.36,573.00 588.00,562.90 588.00,545.50 L 588.00 518.00 L 566.00 518.00 L 566.00 545.50 C566.00,569.28 565.80,573.00 564.50,573.00 C563.21,573.00 563.00,569.55 563.00,547.94 L 563.00 522.87 L 556.50 523.50 L 556.00 548.50 C555.36,580.56 554.00,575.34 554.00,540.82 L 554.00 514.89 L 549.25 515.20 L 544.50 515.50 L 544.23 544.25 L 543.97 573.00 L 531.00 573.00 L 531.00 463.00 L 889.14 463.00 L 885.71 466.25 C878.84,472.75 877.58,476.75 877.18,493.25 L 876.82 508.00 L 888.66 508.01 L 900.50 508.02 L 904.89 518.76 C907.31,524.67 910.29,532.20 911.52,535.50 C912.75,538.80 915.01,544.20 916.53,547.50 C918.06,550.80 919.24,553.84 919.16,554.25 C919.07,554.66 919.70,555.00 920.56,555.00 C921.43,555.00 921.82,555.48 921.44,556.09 C920.96,556.88 926.28,557.08 940.13,556.79 C961.06,556.37 967.66,555.02 976.23,549.43 C978.28,548.09 980.19,547.00 980.48,547.00 C981.36,547.00 981.02,561.09 979.96,568.50 C977.72,584.22 974.04,589.36 962.48,592.93 C955.36,595.13 938.15,597.57 922.80,598.56 L 913.10 599.18 L 912.56 603.34 C911.85,608.83 908.00,653.21 908.00,655.90 C908.00,658.00 908.06,658.00 948.00,658.00 L 988.00 658.00 L 988.00 636.24 C988.00,606.32 990.87,582.86 995.94,571.40 C998.40,565.84 1004.29,562.78 1017.63,560.12 C1029.78,557.71 1035.63,557.06 1054.61,556.02 C1062.80,555.58 1073.85,554.28 1079.18,553.14 C1088.58,551.13 1121.21,547.00 1127.75,547.00 L 1131.00 547.00 L 1131.00 602.74 L 1072.00 601.71 L 1072.00 604.67 C1072.00,607.32 1075.13,639.55 1076.66,652.75 L 1077.28 658.00 L 1232.13 658.00 L 1231.50 664.50 L 1222.75 664.79 C1217.01,664.98 1214.00,665.47 1214.00,666.22 C1214.00,666.85 1217.38,680.55 1221.50,696.66 C1225.62,712.78 1229.00,726.19 1229.00,726.48 C1229.00,726.77 1277.15,727.00 1336.00,727.00 L 983.55 727.00 L 983.19 723.14 C982.88,719.90 983.25,718.95 985.54,717.14 C988.58,714.75 992.87,714.35 995.00,716.25 C996.19,717.31 996.21,717.24 995.08,715.75 C994.01,714.33 994.00,714.00 995.05,714.00 C995.76,714.00 997.26,714.79 998.38,715.75 C1000.41,717.49 1000.41,717.49 998.69,714.75 C996.67,711.55 998.09,711.09 1001.00,714.00 C1002.10,715.10 1003.00,715.61 1003.00,715.12 C1003.00,714.64 1002.33,713.68 1001.50,713.00 C998.65,710.64 1000.03,710.00 1007.96,710.00 C1017.41,710.00 1017.79,710.38 1018.22,720.36 L 1018.50 726.98 L 1030.12 726.99 L 1041.74 727.00 L 1041.38 723.91 C1041.10,721.55 1041.70,720.14 1043.93,717.91 C1047.21,714.64 1050.46,714.20 1053.17,716.65 C1055.17,718.47 1055.74,717.14 1053.80,715.20 C1052.95,714.35 1052.93,714.00 1053.73,714.00 C1054.35,714.00 1055.56,714.71 1056.43,715.57 C1057.29,716.44 1058.00,716.75 1058.00,716.27 C1058.00,715.79 1057.46,714.86 1056.80,714.20 C1054.81,712.21 1058.02,712.71 1060.32,714.75 C1062.23,716.44 1062.25,716.43 1061.16,714.34 C1060.53,713.15 1059.46,711.95 1058.76,711.67 C1058.07,711.39 1061.63,711.12 1066.68,711.08 L 1075.86 711.00 L 1076.52 716.35 C1076.89,719.29 1077.26,722.89 1077.35,724.35 L 1077.50 727.00 L 1111.50 726.99 L 1145.50 726.98 L 1152.92 697.24 C1156.99,680.88 1160.53,666.94 1160.77,666.25 C1161.12,665.26 1152.50,665.00 1119.79,665.00 L 1078.37 665.00 L 1079.63 676.25 C1080.32,682.44 1081.19,690.92 1081.57,695.11 L 1082.26 702.72 L 1079.38 703.34 C1077.80,703.69 1071.23,704.27 1064.78,704.64 L 1053.07 705.30 L 1052.16 702.90 C1051.67,701.58 1049.52,692.51 1047.39,682.75 L 1043.51 665.00 L 1023.92 665.00 L 1024.05 681.61 C1024.14,692.40 1023.80,698.60 1023.10,699.30 C1022.49,699.91 1016.75,700.58 1010.09,700.82 L 998.18 701.24 L 996.65 698.30 C994.96,695.02 991.52,681.93 990.53,675.00 C990.18,672.53 989.66,669.26 989.37,667.75 L 988.84 665.00 L 907.14 665.00 L 906.62 670.25 C906.33,673.14 905.33,685.28 904.40,697.24 L 902.71 718.98 L 899.11 718.45 C897.12,718.16 888.64,717.58 880.25,717.16 C871.86,716.74 864.57,715.97 864.05,715.45 C862.46,713.86 860.18,703.62 857.51,686.14 C855.04,669.94 854.67,665.96 852.89,665.17 C852.31,664.91 851.59,664.99 850.60,665.09 C850.23,665.13 849.82,665.17 849.38,665.20 L 844.82 665.50 ZM 216.21 697.75 L 223.49 727.00 L 133.51 727.00 L 140.79 697.75 C144.80,681.66 148.06,668.18 148.04,667.80 C148.02,667.41 145.19,666.96 141.75,666.80 C135.76,666.51 135.49,666.39 135.18,663.75 L 134.87 661.00 L 228.43 661.00 C294.45,661.00 322.00,660.68 322.00,659.93 C322.00,657.85 310.03,622.94 307.44,617.47 C306.00,614.42 303.85,611.29 302.66,610.51 C298.44,607.75 286.29,606.72 264.75,607.29 L 244.00 607.84 L 244.00 544.00 L 170.15 544.00 L 168.07 541.37 C166.83,539.79 166.01,537.27 166.01,535.12 C166.04,527.76 182.28,484.91 192.68,464.76 C197.85,454.75 200.99,451.68 208.23,449.52 C215.13,447.47 218.93,447.60 225.21,450.10 C238.74,455.49 243.69,456.10 248.75,453.01 C252.61,450.66 253.07,448.00 249.62,448.00 C247.09,448.00 246.04,445.89 246.01,440.75 C246.01,439.03 246.53,438.00 247.42,438.00 C248.21,438.00 250.18,436.88 251.82,435.50 C253.45,434.12 255.06,433.00 255.39,433.00 C255.73,433.00 256.00,436.39 256.00,440.52 C256.00,440.82 256.00,441.11 256.00,441.38 C255.99,445.01 255.99,446.74 256.83,447.83 C257.66,448.92 259.33,449.37 262.67,450.41 C264.82,451.08 264.84,451.01 265.19,433.29 C265.58,414.05 265.49,413.00 263.39,413.00 C262.49,413.00 262.00,411.87 262.00,409.82 C262.00,406.10 258.38,398.08 256.35,397.30 C255.58,397.01 253.27,397.88 251.21,399.24 C249.16,400.60 246.47,402.03 245.24,402.43 C243.17,403.08 243.07,402.93 243.97,400.57 C245.22,397.29 244.82,397.34 239.37,401.09 C233.19,405.34 222.25,410.18 219.65,409.81 C217.68,409.53 217.50,408.92 217.56,402.43 C217.60,396.87 218.10,394.57 219.91,391.65 C222.87,386.86 230.47,382.95 238.17,382.25 L 243.96 381.73 L 244.23 362.61 L 244.50 343.50 L 346.75 343.25 L 449.00 342.99 L 449.00 453.00 L 438.33 453.00 C432.47,453.00 427.87,452.80 428.12,452.55 C428.37,452.30 431.48,451.03 435.04,449.74 C439.37,448.16 441.40,446.91 441.20,445.94 C440.85,444.23 421.86,390.66 421.41,390.14 C421.25,389.94 417.37,391.14 412.80,392.81 C407.31,394.82 404.63,396.30 404.89,397.17 C406.40,402.38 406.27,403.00 403.62,403.00 L 401.00 403.00 L 401.00 428.00 C401.00,444.00 400.64,453.00 400.00,453.00 C399.35,453.00 399.00,441.83 399.00,421.50 L 399.00 390.00 L 389.00 390.00 L 389.00 421.50 C389.00,448.83 388.80,453.00 387.50,453.00 C386.20,453.00 386.00,448.94 386.00,422.50 L 386.00 392.00 L 368.00 392.00 L 368.00 422.50 C368.00,452.33 367.96,453.00 366.00,453.00 C364.04,453.00 364.00,452.33 364.00,417.00 L 364.00 381.00 L 354.00 381.00 L 354.00 417.00 C354.00,448.33 353.81,453.00 352.50,453.00 C351.20,453.00 351.00,449.28 351.00,425.50 L 351.00 398.00 L 338.00 398.00 L 337.77 425.75 L 337.54 453.50 L 337.02 421.50 L 336.50 389.50 L 316.50 389.50 L 316.24 421.25 C316.01,448.55 315.76,453.00 314.49,453.00 C313.21,453.00 313.00,449.28 313.00,426.50 L 313.00 400.00 L 301.00 400.00 L 301.00 426.50 C301.00,443.50 300.64,453.00 300.00,453.00 C299.36,453.00 299.00,442.33 299.00,423.00 L 299.00 393.00 L 277.00 393.00 L 277.00 423.00 C277.00,452.33 276.96,453.00 275.00,453.00 C273.05,453.00 273.00,452.33 273.00,427.93 L 273.00 402.87 L 270.25 403.18 L 267.50 403.50 L 266.97 452.93 L 269.46 454.57 C270.84,455.47 272.91,457.74 274.06,459.60 L 276.16 463.00 L 449.00 463.00 L 449.00 573.00 L 443.00 573.00 L 443.00 518.00 L 421.00 518.00 L 421.00 542.38 C421.00,568.18 420.59,573.00 418.38,573.00 C417.24,573.00 417.00,568.55 417.00,548.00 L 417.00 523.00 L 411.00 523.00 L 411.00 548.00 C411.00,564.00 410.64,573.00 410.00,573.00 C409.36,573.00 409.00,562.67 409.00,544.00 L 409.00 515.00 L 399.00 515.00 L 399.00 544.00 C399.00,569.11 398.80,573.00 397.50,573.00 C396.21,573.00 396.00,569.44 396.00,547.00 L 396.00 521.00 L 378.00 521.00 L 378.00 526.00 C378.00,528.75 377.81,531.00 377.58,531.00 C374.70,531.00 374.00,529.41 374.00,522.91 C374.00,516.49 373.84,516.00 371.60,515.44 C370.28,515.11 368.15,514.98 366.85,515.17 C364.66,515.48 364.48,516.00 364.21,522.75 C363.98,528.30 363.57,530.00 362.46,530.00 C361.26,530.00 361.00,527.72 361.00,517.00 L 361.00 504.00 L 349.00 504.00 L 349.00 517.03 C349.00,526.57 348.66,530.18 347.75,530.48 C347.06,530.71 335.24,531.26 321.48,531.70 L 296.45 532.50 L 299.87 546.67 L 303.28 560.84 L 317.89 560.94 C342.20,561.12 363.70,564.40 372.50,569.28 C380.04,573.46 383.00,584.48 383.00,608.32 C382.99,629.29 379.00,673.22 375.36,692.26 C374.70,695.72 368.64,699.41 361.00,700.99 C360.39,701.11 359.81,701.24 359.24,701.35 C349.61,703.35 346.75,703.94 344.04,703.53 C342.74,703.33 341.48,702.91 339.52,702.29 L 333.54 700.43 L 329.48 685.96 C327.25,678.01 325.08,670.49 324.65,669.25 L 323.87 667.00 L 271.46 667.00 L 263.94 697.00 L 256.43 727.00 L 249.92 727.00 L 250.89 723.25 C253.69,712.44 263.88,672.12 264.41,669.75 L 265.04 667.00 L 237.02 667.00 C221.61,667.00 208.98,667.34 208.96,667.75 C208.94,668.16 212.20,681.66 216.21,697.75 ZM 703.00 305.41 C703.00,320.52 702.66,333.07 702.25,333.31 C699.32,334.96 699.00,332.52 699.00,308.42 L 699.00 284.00 L 693.00 284.00 L 693.00 308.50 C693.00,324.17 692.64,333.00 692.00,333.00 C691.36,333.00 691.00,322.83 691.00,304.50 L 691.00 276.00 L 681.00 276.00 L 681.00 304.50 C681.00,329.17 680.80,333.00 679.50,333.00 C678.21,333.00 678.00,329.50 678.00,307.50 L 678.00 282.00 L 660.00 282.00 L 660.00 307.50 C660.00,332.33 659.95,333.00 658.00,333.00 C656.05,333.00 656.00,332.33 656.00,304.50 L 656.00 276.00 L 646.00 276.00 L 646.00 304.50 C646.00,329.17 645.80,333.00 644.50,333.00 C643.20,333.00 643.00,328.56 643.00,299.00 L 643.00 265.00 L 630.00 265.00 L 630.00 333.00 L 620.00 333.00 L 620.00 327.50 C620.00,324.48 620.45,322.00 621.00,322.00 C621.55,322.00 622.00,319.75 622.00,317.00 L 622.00 312.00 L 614.00 312.00 L 614.00 302.00 L 558.00 302.00 L 558.00 312.00 L 567.00 312.00 L 567.00 322.00 L 558.00 322.00 L 558.00 327.50 C558.00,331.72 557.65,333.00 556.50,333.00 C555.21,333.00 555.00,329.61 555.00,308.50 L 555.00 284.00 L 549.00 284.00 L 549.00 308.50 C549.00,324.17 548.64,333.00 548.00,333.00 C547.36,333.00 547.00,322.83 547.00,304.50 L 547.00 276.00 L 537.00 276.00 L 537.00 333.00 L 531.00 333.00 L 531.00 224.00 L 897.00 224.00 L 897.00 333.00 L 890.00 333.00 L 890.00 282.00 L 872.00 282.00 L 871.99 305.25 C871.97,329.60 871.65,333.00 869.38,333.00 C868.24,333.00 868.00,328.10 868.00,304.50 L 868.00 276.00 L 858.00 276.00 L 858.00 304.50 C858.00,329.17 857.80,333.00 856.50,333.00 C855.20,333.00 855.00,328.56 855.00,299.00 L 855.00 265.00 L 842.00 265.00 L 842.00 299.00 C842.00,328.56 841.80,333.00 840.50,333.00 C839.20,333.00 839.00,329.17 839.00,304.50 L 839.00 276.00 L 829.00 276.00 L 829.00 304.50 C829.00,329.17 828.80,333.00 827.50,333.00 C826.20,333.00 826.00,328.56 826.00,299.00 L 826.00 265.00 L 813.00 265.00 L 812.77 299.25 C812.56,330.18 812.51,331.10 812.25,308.75 L 811.97 284.00 L 791.00 284.00 L 791.00 308.97 C791.00,330.75 790.81,333.86 789.50,333.36 C788.21,332.87 788.00,328.49 788.00,302.39 L 788.00 272.00 L 776.00 272.00 L 776.00 302.50 C776.00,321.83 775.64,333.00 775.02,333.00 C774.40,333.00 773.93,322.77 773.77,305.75 L 773.50 278.50 L 762.75 278.22 L 752.00 277.93 L 752.00 305.30 C752.00,320.35 751.73,332.94 751.40,333.26 C751.07,333.59 750.17,333.62 749.40,333.32 C748.25,332.88 748.00,328.40 748.00,308.39 L 748.00 284.00 L 742.00 284.00 L 742.00 308.50 C742.00,324.17 741.64,333.00 741.00,333.00 C740.36,333.00 740.00,322.83 740.00,304.50 L 740.00 276.00 L 730.00 276.00 L 730.00 333.00 L 725.03 333.00 L 724.77 305.75 L 724.50 278.50 L 713.75 278.22 L 703.00 277.93 ZM 460.00 598.09 L 460.00 674.00 L 454.00 674.00 L 454.00 220.87 L 456.75 221.18 C459.02,221.44 459.55,222.05 459.81,224.65 C460.02,226.90 460.74,227.96 462.31,228.38 C465.23,229.17 501.12,229.15 507.70,228.36 C512.63,227.77 512.91,227.57 513.20,224.62 C513.45,222.05 513.99,221.44 516.25,221.18 L 519.00 220.87 L 519.00 674.13 L 516.25 673.82 L 513.50 673.50 L 513.22 636.05 C513.06,615.45 512.69,598.35 512.38,598.05 C511.56,597.23 467.53,596.68 463.49,597.44 ZM 544.00 396.00 L 544.00 453.00 L 531.00 453.00 L 531.00 343.00 L 897.00 343.00 L 897.00 453.00 L 880.00 453.00 L 880.00 392.00 L 868.00 392.00 L 868.00 422.50 C868.00,442.17 867.64,453.00 867.00,453.00 C866.36,453.00 866.00,443.33 866.00,426.00 L 866.00 399.00 L 844.00 399.00 L 844.00 426.00 C844.00,452.33 843.95,453.00 842.00,453.00 C840.05,453.00 840.00,452.33 840.00,428.50 L 840.00 404.00 L 834.00 404.00 L 834.00 428.50 C834.00,444.17 833.64,453.00 833.00,453.00 C832.36,453.00 832.00,442.83 832.00,424.50 L 832.00 396.00 L 822.00 396.00 L 822.00 453.00 L 817.00 453.00 L 817.00 398.00 L 795.00 398.00 L 795.00 425.50 C795.00,452.33 794.95,453.00 793.00,453.00 C791.05,453.00 791.00,452.33 791.00,428.50 L 791.00 404.00 L 785.00 404.00 L 785.00 428.50 C785.00,444.17 784.64,453.00 784.00,453.00 C783.36,453.00 783.00,442.83 783.00,424.50 L 783.00 396.00 L 773.00 396.00 L 773.00 453.00 L 767.75 452.96 L 762.50 452.92 L 765.75 451.51 C767.54,450.73 769.00,449.92 769.00,449.70 C769.00,448.78 749.05,393.71 748.52,393.19 C748.21,392.87 746.29,393.21 744.27,393.95 C741.96,394.78 740.47,394.91 740.26,394.28 C740.08,393.73 739.37,392.52 738.68,391.58 C737.53,390.00 736.92,390.07 729.97,392.58 C725.86,394.07 722.00,395.90 721.39,396.64 C720.59,397.62 717.46,398.00 710.14,398.00 L 700.00 398.00 L 700.00 425.50 C700.00,452.33 699.95,453.00 698.00,453.00 C696.05,453.00 696.00,452.33 696.00,428.50 L 696.00 404.00 L 690.00 404.00 L 690.00 428.50 C690.00,444.17 689.64,453.00 689.00,453.00 C688.36,453.00 688.00,442.83 688.00,424.50 L 688.00 396.00 L 678.00 396.00 L 678.00 424.50 C678.00,442.51 677.64,453.00 677.02,453.00 C676.41,453.00 675.93,443.27 675.77,427.25 L 675.50 401.50 L 666.25 401.21 L 657.00 400.92 L 657.00 426.96 C657.00,452.33 656.95,453.00 655.00,453.00 C653.05,453.00 653.00,452.33 653.00,424.50 L 653.00 396.00 L 643.00 396.00 L 643.00 424.58 C643.00,447.01 642.73,453.08 641.75,452.75 C640.79,452.43 640.44,444.52 640.24,418.67 L 639.97 385.00 L 628.00 385.00 L 628.00 418.44 C628.00,439.66 627.63,452.11 627.00,452.50 C626.34,452.91 626.00,444.68 626.00,428.56 L 626.00 404.00 L 606.00 404.00 L 606.00 428.50 C606.00,452.33 605.95,453.00 604.00,453.00 C602.04,453.00 602.00,452.33 602.00,422.50 L 602.00 392.00 L 590.00 392.00 L 590.00 422.50 C590.00,442.17 589.64,453.00 589.00,453.00 C588.36,453.00 588.00,443.33 588.00,426.00 L 588.00 399.00 L 577.00 399.00 C570.95,399.00 566.05,399.34 566.12,399.75 C566.18,400.16 566.18,412.31 566.12,426.75 C566.02,449.23 565.79,453.00 564.52,453.00 C563.25,453.00 563.00,449.33 562.77,428.25 L 562.50 403.50 L 556.00 402.87 L 555.98 428.19 C555.97,444.90 555.64,452.99 555.00,452.00 C554.44,451.13 554.02,439.12 554.02,423.25 L 554.00 396.00 ZM 276.77 305.67 C276.51,331.93 276.09,335.76 273.69,333.35 C273.31,332.98 273.00,321.72 273.00,308.33 L 273.00 284.00 L 267.00 284.00 L 267.00 308.50 C267.00,324.17 266.64,333.00 266.00,333.00 C265.36,333.00 265.00,322.83 265.00,304.50 L 265.00 276.00 L 255.00 276.00 L 255.00 333.00 L 244.00 333.00 L 244.00 224.00 L 449.00 224.00 L 449.00 333.00 L 433.03 333.00 L 432.77 305.75 L 432.50 278.50 L 410.50 278.50 L 410.23 305.75 C410.01,329.05 409.75,333.00 408.48,333.00 C407.21,333.00 407.00,329.49 407.00,308.50 L 407.00 284.00 L 401.00 284.00 L 400.93 306.75 C400.89,319.26 400.47,330.40 400.00,331.50 C399.49,332.68 399.11,321.73 399.07,304.75 L 399.00 276.00 L 389.00 276.00 L 389.00 304.50 C389.00,329.17 388.80,333.00 387.50,333.00 C386.21,333.00 386.00,329.50 386.00,307.50 L 386.00 282.00 L 368.00 282.00 L 368.00 307.50 C368.00,332.33 367.95,333.00 366.00,333.00 C364.05,333.00 364.00,332.33 364.00,304.50 L 364.00 276.00 L 354.00 276.00 L 354.00 304.50 C354.00,329.17 353.80,333.00 352.50,333.00 C351.20,333.00 351.00,328.56 351.00,299.00 L 351.00 265.00 L 338.00 265.00 L 337.77 299.75 C337.65,317.07 337.59,325.16 337.51,325.16 C337.44,325.16 337.37,319.64 337.25,309.25 L 336.97 284.00 L 316.00 284.00 L 316.00 308.50 C316.00,329.61 315.79,333.00 314.50,333.00 C313.20,333.00 313.00,328.94 313.00,302.50 L 313.00 272.00 L 301.00 272.00 L 301.00 302.50 C301.00,322.17 300.64,333.00 300.00,333.00 C299.36,333.00 299.00,323.17 299.00,305.50 L 299.00 278.00 L 277.03 278.00 ZM 140.00 726.38 C140.00,726.72 157.32,727.00 178.50,727.00 C199.68,727.00 217.00,726.72 217.00,726.38 C217.00,725.88 208.95,694.14 202.89,670.75 L 201.92 667.00 L 155.08 667.00 L 154.11 670.75 C148.05,694.14 140.00,725.88 140.00,726.38 ZM 1152.02 726.75 C1152.01,726.89 1167.75,727.00 1187.00,727.00 C1213.29,727.00 1222.00,726.71 1222.00,725.82 C1222.00,725.16 1218.62,711.45 1214.50,695.34 C1210.38,679.22 1207.00,665.80 1207.00,665.50 C1207.00,665.20 1198.16,665.08 1187.35,665.23 L 1167.70 665.50 L 1159.88 696.00 C1155.57,712.78 1152.04,726.61 1152.02,726.75 ZM 264.96 538.25 C265.01,541.42 265.19,541.45 275.31,539.90 C283.12,538.71 285.57,537.23 286.48,533.15 C286.95,531.02 288.96,529.51 296.62,525.50 C301.88,522.75 306.43,520.10 306.73,519.62 C307.49,518.41 312.01,477.83 311.48,476.97 C311.25,476.59 309.03,476.00 306.56,475.66 C302.43,475.10 301.38,475.46 293.49,480.18 L 284.91 485.31 L 271.92 480.16 C259.64,475.28 258.75,475.08 255.67,476.36 L 252.42 477.72 L 250.67 498.39 C249.70,509.76 249.17,519.46 249.47,519.95 C249.77,520.44 251.37,521.14 253.01,521.50 C254.66,521.86 256.00,522.54 256.00,523.02 C256.00,523.49 257.43,524.01 259.18,524.19 C262.15,524.48 262.45,524.87 263.64,530.00 C264.34,533.03 264.93,536.74 264.96,538.25 ZM 958.43 442.87 C955.32,445.32 952.16,445.46 946.50,443.41 C940.74,441.33 939.58,439.40 942.01,435.99 C943.08,434.49 944.40,432.08 944.95,430.63 C945.72,428.60 946.63,428.00 948.95,428.00 C952.59,428.00 955.30,424.46 954.82,420.33 C954.55,417.99 953.91,417.42 951.00,416.92 C943.17,415.58 931.72,408.82 923.72,400.82 L 918.64 395.74 L 915.44 397.46 C911.42,399.63 908.04,404.14 906.49,409.42 C904.88,414.88 902.45,415.28 901.07,410.31 C899.43,404.43 899.80,399.96 902.38,394.42 C906.86,384.82 911.52,382.87 930.53,382.67 C939.04,382.58 945.31,385.75 949.29,392.16 C951.38,395.52 952.96,397.00 954.45,397.00 C956.99,397.00 962.45,402.42 963.54,406.00 C963.95,407.38 965.80,410.48 967.65,412.89 C971.75,418.27 971.99,422.35 968.50,427.10 C967.13,428.97 964.91,432.81 963.57,435.62 C962.23,438.44 959.92,441.70 958.43,442.87 ZM 1170.59 402.89 C1168.27,405.47 1167.00,405.59 1167.00,403.22 C1167.00,401.74 1160.65,387.31 1159.48,386.15 C1159.28,385.95 1157.85,386.67 1156.31,387.76 C1151.05,391.47 1144.76,394.17 1142.68,393.63 C1141.53,393.33 1138.65,393.95 1136.26,395.00 C1127.42,398.91 1122.00,398.53 1122.00,393.99 C1122.00,393.03 1121.10,392.00 1120.00,391.71 C1117.70,391.11 1117.48,388.57 1119.42,385.06 C1120.43,383.24 1120.50,382.17 1119.68,380.86 C1118.83,379.51 1118.98,378.67 1120.35,377.17 C1122.79,374.47 1132.42,369.51 1138.93,367.60 C1145.01,365.81 1155.53,365.49 1159.43,366.98 C1161.04,367.59 1162.00,367.60 1162.00,367.00 C1162.00,366.47 1163.15,365.29 1164.55,364.37 C1166.47,363.12 1167.39,362.99 1168.25,363.85 C1169.12,364.72 1169.10,365.30 1168.20,366.20 C1166.45,367.95 1166.73,369.00 1168.94,369.00 C1171.27,369.00 1172.71,370.94 1171.12,371.93 C1170.35,372.40 1170.81,373.41 1172.49,374.99 C1175.73,378.03 1176.99,382.73 1176.99,391.77 C1177.00,398.40 1176.80,399.13 1174.75,399.91 C1173.51,400.38 1171.64,401.72 1170.59,402.89 ZM 460.00 233.00 L 460.00 259.00 L 513.00 259.00 L 513.00 233.00 ZM 460.00 324.00 L 460.00 350.00 L 513.00 350.00 L 513.00 324.00 ZM 460.00 415.00 L 460.00 441.00 L 513.00 441.00 L 513.00 415.00 ZM 460.00 476.00 L 460.00 502.00 L 513.00 502.00 L 513.00 476.00 ZM 460.00 506.00 L 460.00 532.00 L 513.00 532.00 L 513.00 506.00 ZM 460.00 567.00 L 460.00 593.00 L 513.00 593.00 L 513.00 567.00 ZM 460.00 276.62 L 460.00 289.00 L 513.00 289.00 L 513.00 264.28 L 507.75 263.65 C501.06,262.84 465.23,262.83 462.25,263.63 C460.07,264.21 460.00,264.62 460.00,276.62 ZM 461.25 410.34 C463.08,411.08 501.61,411.09 507.75,410.35 L 513.00 409.72 L 513.00 385.00 L 460.00 385.00 L 460.00 397.42 C460.00,406.41 460.34,409.97 461.25,410.34 ZM 461.75 319.31 C464.48,320.02 501.88,320.06 507.75,319.35 L 513.00 318.72 L 513.00 294.00 L 460.00 294.00 L 460.00 306.43 C460.00,317.42 460.20,318.91 461.75,319.31 ZM 460.00 355.00 L 460.00 380.00 L 513.00 380.00 L 513.00 355.00 ZM 460.00 446.00 L 460.00 471.00 L 513.00 471.00 L 513.00 446.00 ZM 460.00 537.00 L 460.00 562.00 L 513.00 562.00 L 513.00 537.00 ZM 1023.22 636.75 L 1022.72 658.00 L 1041.95 658.00 L 1041.38 654.75 C1041.07,652.96 1039.48,644.97 1037.86,637.00 C1036.23,629.03 1034.16,618.67 1033.26,614.00 C1032.36,609.33 1031.48,605.32 1031.32,605.09 C1031.15,604.86 1030.05,605.54 1028.87,606.59 C1024.47,610.51 1023.76,614.31 1023.22,636.75 ZM 741.00 452.44 C741.00,452.75 736.72,453.00 731.50,453.00 L 722.00 453.00 L 722.03 426.75 C722.05,411.14 722.42,401.11 722.94,402.00 C723.85,403.56 741.00,451.45 741.00,452.44 ZM 424.00 452.06 C424.00,452.58 420.17,453.00 415.50,453.00 L 407.00 453.00 L 407.03 429.25 C407.05,413.87 407.39,406.07 408.00,407.12 C409.18,409.12 424.00,450.77 424.00,452.06 ZM 607.39 727.00 L 295.21 727.00 C325.58,727.00 334.00,726.73 334.00,725.75 C334.00,724.80 337.17,724.57 347.25,724.77 C354.54,724.92 367.84,724.70 376.80,724.27 C392.05,723.55 393.07,723.61 392.65,725.25 C392.21,726.91 402.93,727.00 607.39,727.00 ZM 348.78 628.00 L 349.36 630.50 L 349.78 628.00 C350.02,626.62 349.89,620.48 349.51,614.34 C348.89,604.32 348.57,602.94 346.41,600.92 C345.09,599.67 343.75,598.92 343.43,599.23 C342.97,599.70 346.01,616.07 348.78,628.00 ZM 759.98 451.75 C760.00,452.65 757.81,452.99 752.25,452.97 C743.99,452.94 744.06,452.50 752.81,449.43 C757.42,447.81 758.23,447.76 759.04,449.03 C759.55,449.84 759.98,451.06 759.98,451.75 ZM 865.41 537.63 C865.75,538.52 866.92,539.01 868.25,538.82 C870.01,538.57 870.50,537.85 870.50,535.50 C870.50,532.97 870.11,532.50 868.01,532.50 C865.43,532.50 864.30,534.73 865.41,537.63 ZM 1139.00 406.00 C1139.00,408.07 1136.59,408.76 1135.50,407.00 C1134.66,405.65 1135.79,404.00 1137.56,404.00 C1138.35,404.00 1139.00,404.90 1139.00,406.00 ZM 916.33 411.98 C914.59,411.99 912.34,412.26 911.33,412.58 C909.66,413.11 909.66,413.03 911.44,411.58 C913.65,409.78 915.82,409.59 918.00,411.00 C919.14,411.74 918.75,411.97 916.33,411.98 ZM 1156.82 403.67 C1156.24,406.68 1153.00,406.40 1153.00,403.33 C1153.00,402.60 1153.93,402.00 1155.07,402.00 C1156.47,402.00 1157.04,402.54 1156.82,403.67 ZM 916.55 417.91 C916.18,418.51 915.49,419.00 915.00,419.00 C913.46,419.00 912.73,416.87 913.89,415.71 C915.27,414.33 917.58,416.25 916.55,417.91 ZM 238.55 413.91 C238.18,414.51 237.49,415.00 237.00,415.00 C235.46,415.00 234.73,412.87 235.89,411.71 C237.27,410.33 239.58,412.25 238.55,413.91 ZM 254.50 414.93 C254.50,416.51 252.74,417.40 251.69,416.35 C250.31,414.98 251.03,412.86 252.75,413.19 C253.71,413.38 254.50,414.16 254.50,414.93 ZM 933.00 417.50 C933.00,419.02 930.88,419.55 929.67,418.33 C928.40,417.07 929.01,416.00 931.00,416.00 C932.11,416.00 933.00,416.67 933.00,417.50 Z" fill="rgb(22,31,91)"/>
<path d="M 424.00 452.06 C424.00,451.43 420.45,441.12 416.68,430.53 C420.77,441.88 424.37,451.79 424.58,452.12 C424.90,452.64 428.54,451.90 432.65,450.63 C430.18,451.57 428.31,452.35 428.12,452.55 C427.87,452.80 432.47,453.00 438.33,453.00 L 449.00 453.00 L 449.00 342.99 L 346.75 343.25 L 244.50 343.50 L 244.23 362.61 L 243.96 381.73 L 238.17 382.25 C230.47,382.95 222.87,386.86 219.91,391.65 C219.82,391.79 219.74,391.93 219.66,392.06 C221.04,389.42 223.16,387.45 226.10,385.95 L 230.00 383.96 L 230.00 188.91 L 234.91 184.00 L 458.09 184.00 L 460.55 186.45 C462.98,188.89 463.00,189.04 463.00,208.45 L 463.00 228.00 L 506.00 228.00 L 506.00 208.45 C506.00,189.04 506.02,188.89 508.45,186.45 L 510.91 184.00 L 917.09 184.00 L 919.55 186.45 L 922.00 188.91 L 922.00 382.58 L 929.25 382.54 C939.04,382.49 945.08,385.38 949.29,392.16 C945.31,385.75 939.04,382.58 930.53,382.67 C911.52,382.87 906.86,384.82 902.38,394.42 C899.80,399.96 899.43,404.43 901.07,410.31 C902.43,415.22 904.82,414.89 906.43,409.61 C906.42,409.65 906.41,409.69 906.40,409.74 C906.05,411.49 904.69,413.63 903.38,414.48 C900.28,416.52 900.30,420.30 903.41,422.75 C904.74,423.80 906.31,426.42 906.89,428.58 C908.52,434.59 912.44,439.55 917.46,441.98 C921.56,443.97 922.00,444.51 922.00,447.68 C922.00,450.36 921.52,451.31 919.98,451.72 C918.29,452.16 918.17,452.50 919.23,453.78 C921.00,455.91 926.34,458.00 930.02,458.00 C933.86,458.00 938.53,455.69 942.70,451.74 C945.85,448.75 946.01,448.71 954.08,449.27 C964.97,450.01 974.83,454.70 981.46,462.28 C985.77,467.20 994.00,481.44 994.00,483.97 C994.00,486.61 967.07,497.01 963.63,495.69 C962.96,495.43 961.82,492.22 961.09,488.56 C959.33,479.74 958.62,480.75 960.18,489.86 L 961.41 497.00 L 965.07 497.00 C968.53,497.00 968.77,497.21 969.37,500.75 C969.72,502.81 970.30,510.60 970.65,518.05 L 971.29 531.59 L 967.03 535.24 C960.78,540.59 941.39,550.22 938.11,549.60 C934.40,548.89 916.14,548.00 918.25,548.63 C920.18,549.20 920.66,551.00 918.88,551.00 C918.05,551.00 918.05,551.35 918.87,552.34 C919.48,553.08 919.69,553.98 919.32,554.34 C919.26,554.41 919.22,554.47 919.21,554.53 C919.16,554.44 919.14,554.35 919.16,554.25 C919.24,553.84 918.06,550.80 916.53,547.50 C915.01,544.20 912.75,538.80 911.52,535.50 C910.56,532.93 908.54,527.78 906.55,522.84 C909.05,528.75 910.64,531.60 910.85,530.51 C911.89,525.17 910.06,508.04 907.60,500.07 C904.65,490.52 904.35,484.49 906.46,477.46 C908.45,470.86 907.64,470.57 905.47,477.09 C904.18,480.96 903.88,484.18 904.28,489.51 L 904.82 496.71 L 900.16 495.84 C890.80,494.11 886.00,492.01 886.01,489.67 C886.05,482.25 891.92,469.39 898.21,462.90 C901.30,459.71 901.65,459.00 900.09,459.00 C899.03,459.00 895.32,460.47 891.84,462.27 C887.13,464.70 884.67,466.78 882.28,470.34 C880.62,472.81 879.48,474.85 878.68,477.18 C879.86,472.64 881.94,469.82 885.71,466.25 L 889.14 463.00 L 531.00 463.00 L 531.00 573.00 L 543.97 573.00 L 544.23 544.25 L 544.50 515.50 L 549.25 515.20 L 554.00 514.89 L 554.00 540.82 C554.00,575.34 555.36,580.56 556.00,548.50 L 556.50 523.50 L 555.97 573.00 L 562.00 573.00 L 562.00 522.97 L 563.00 522.87 L 563.00 547.94 C563.00,569.55 563.21,573.00 564.50,573.00 C565.80,573.00 566.00,569.28 566.00,545.50 C566.01,559.96 566.31,571.97 566.67,572.33 C567.03,572.70 571.98,573.00 577.67,573.00 L 588.00 573.00 L 588.00 545.50 C588.00,562.90 588.36,573.00 588.99,573.00 C589.61,573.00 590.07,561.60 590.24,542.25 L 590.50 511.50 L 593.00 511.28 C594.38,511.16 596.96,511.29 598.75,511.58 L 602.00 512.09 L 602.00 542.62 C602.00,571.15 602.11,573.12 603.75,572.81 C605.35,572.50 605.52,570.38 605.77,547.74 L 606.00 526.23 L 606.00 573.07 L 615.75 572.79 L 625.50 572.50 L 625.77 547.75 L 626.00 526.23 L 626.00 548.06 C626.00,564.51 626.34,572.91 627.00,572.50 C627.63,572.11 627.99,559.71 628.00,538.50 L 628.00 573.00 L 640.00 573.00 L 640.00 507.41 L 640.24 538.17 C640.44,564.42 640.79,572.43 641.75,572.75 C642.73,573.08 643.00,567.01 643.00,544.58 L 643.00 516.00 L 653.00 516.00 L 653.00 544.50 C653.00,562.83 653.36,573.00 654.00,573.00 C654.64,573.00 655.00,563.67 655.00,547.00 L 655.00 573.00 L 673.00 573.00 L 673.00 524.25 L 673.23 546.67 C673.44,566.12 673.80,572.44 674.75,572.75 C675.73,573.08 676.00,566.91 676.00,544.08 L 676.00 515.00 L 686.00 515.00 L 686.00 573.00 L 695.90 573.00 L 696.20 567.25 L 696.50 561.50 L 705.00 560.89 L 705.00 562.00 L 697.00 562.00 L 697.00 573.00 L 770.00 573.00 L 770.00 504.00 L 771.00 504.00 L 771.00 573.00 L 783.00 573.00 L 783.00 538.56 C783.00,561.34 783.34,572.91 784.00,572.50 C784.60,572.13 785.00,565.04 785.00,554.60 C785.00,545.09 785.29,532.52 785.65,526.66 L 786.30 516.00 L 791.15 516.00 C795.42,516.00 796.00,516.25 796.00,518.11 C796.00,519.24 796.25,519.76 796.86,519.77 L 796.21 519.94 C792.40,520.97 786.85,525.91 785.63,529.36 C785.27,530.39 784.98,549.56 784.98,571.97 C784.98,609.72 785.12,613.18 786.95,619.11 C792.64,637.52 807.91,651.88 826.60,656.41 C829.85,657.19 837.11,657.87 842.75,657.92 C843.73,657.92 844.62,657.95 845.43,657.97 C843.27,658.00 840.50,658.00 836.94,658.00 L 820.87 658.00 L 821.50 664.50 L 829.75 664.79 C834.29,664.95 838.00,665.35 838.00,665.67 C838.00,665.98 834.79,678.91 830.77,694.78 C833.75,682.83 836.00,673.15 836.00,672.14 L 836.00 670.00 L 519.00 670.00 L 519.00 220.87 L 516.25 221.18 C513.99,221.44 513.45,222.05 513.20,224.62 C512.91,227.57 512.63,227.77 507.70,228.36 C501.12,229.15 465.23,229.17 462.31,228.38 C460.74,227.96 460.02,226.90 459.81,224.65 C459.55,222.05 459.02,221.44 456.75,221.18 L 454.00 220.87 L 454.00 671.99 C454.00,670.00 453.50,669.98 416.30,670.24 L 378.61 670.50 L 377.96 675.12 C380.67,653.65 382.99,624.31 383.00,608.32 C383.00,604.75 382.93,601.47 382.79,598.45 C382.97,601.87 383.07,605.65 383.10,609.82 C383.16,618.23 383.51,622.54 384.00,621.00 C384.44,619.62 384.85,608.26 384.90,595.75 L 385.00 573.00 L 396.00 573.00 L 396.00 547.00 C396.00,569.44 396.21,573.00 397.50,573.00 C398.80,573.00 399.00,569.11 399.00,544.00 L 399.00 515.00 L 409.00 515.00 L 409.00 544.00 C409.00,562.67 409.36,573.00 410.00,573.00 C410.64,573.00 411.00,564.00 411.00,548.00 L 411.00 573.00 L 417.00 573.00 L 417.00 548.00 C417.00,568.55 417.24,573.00 418.38,573.00 C420.59,573.00 421.00,568.18 421.00,542.38 L 421.00 573.00 L 442.00 573.00 L 442.00 518.00 L 443.00 518.00 L 443.00 573.00 L 449.00 573.00 L 449.00 463.00 L 276.16 463.00 L 274.06 459.60 C272.91,457.74 270.84,455.47 269.46,454.57 L 266.97 452.93 L 267.50 403.50 L 270.25 403.18 L 273.00 402.87 L 273.00 427.93 C273.00,452.33 273.05,453.00 275.00,453.00 C276.96,453.00 277.00,452.33 277.00,423.00 L 277.00 453.00 L 299.00 453.00 L 299.00 423.00 C299.00,442.33 299.36,453.00 300.00,453.00 C300.64,453.00 301.00,443.50 301.00,426.50 L 301.00 400.00 L 302.00 400.00 L 302.00 453.10 L 307.25 452.80 L 312.50 452.50 L 312.77 426.25 L 313.00 403.27 L 313.00 426.50 C313.00,449.28 313.21,453.00 314.49,453.00 C315.76,453.00 316.01,448.55 316.24,421.25 L 316.50 389.50 L 336.50 389.50 L 337.02 421.50 L 337.54 453.50 L 337.77 425.75 L 338.00 398.00 L 339.00 398.00 L 339.00 453.00 L 351.00 453.00 L 351.00 425.50 C351.00,449.28 351.20,453.00 352.50,453.00 C353.81,453.00 354.00,448.33 354.00,417.00 L 354.00 453.00 L 364.00 453.00 L 364.00 417.00 C364.00,452.33 364.04,453.00 366.00,453.00 C367.96,453.00 368.00,452.33 368.00,422.50 L 368.00 392.00 L 386.00 392.00 L 386.00 422.50 C386.00,448.94 386.20,453.00 387.50,453.00 C388.80,453.00 389.00,448.83 389.00,421.50 L 389.00 453.00 L 399.00 453.00 L 399.00 421.50 C399.00,441.83 399.35,453.00 400.00,453.00 C400.64,453.00 401.00,444.00 401.00,428.00 L 401.00 403.00 L 403.62 403.00 C406.09,403.00 406.37,402.46 405.18,398.18 C406.37,401.68 409.56,410.66 413.02,420.32 C410.49,413.36 408.41,407.82 408.00,407.12 C407.39,406.07 407.05,413.87 407.03,429.25 L 407.00 453.00 L 415.50 453.00 C420.17,453.00 424.00,452.58 424.00,452.06 ZM 549.00 308.50 L 549.00 333.00 L 555.00 333.00 L 555.00 308.50 C555.00,329.61 555.21,333.00 556.50,333.00 C557.65,333.00 558.00,331.72 558.00,327.50 L 558.00 322.00 L 559.00 322.00 L 559.00 333.00 L 630.00 333.00 L 630.00 265.00 L 631.00 265.00 L 631.00 333.00 L 643.00 333.00 L 643.00 299.00 C643.00,328.56 643.20,333.00 644.50,333.00 C645.80,333.00 646.00,329.17 646.00,304.50 L 646.00 276.00 L 656.00 276.00 L 656.00 304.50 C656.00,332.33 656.05,333.00 658.00,333.00 C659.95,333.00 660.00,332.33 660.00,307.50 L 660.00 333.00 L 678.00 333.00 L 678.00 307.50 C678.00,329.50 678.21,333.00 679.50,333.00 C680.80,333.00 681.00,329.17 681.00,304.50 L 681.00 276.00 L 691.00 276.00 L 691.00 304.50 C691.00,322.83 691.36,333.00 692.00,333.00 C692.64,333.00 693.00,324.17 693.00,308.50 L 693.00 333.00 L 699.00 333.00 L 699.00 308.50 C699.00,332.52 699.32,334.96 702.25,333.31 C702.66,333.08 702.99,320.85 703.00,306.00 L 703.00 333.00 L 724.00 333.00 L 724.00 279.00 L 703.00 279.00 L 703.00 277.93 L 713.75 278.22 L 724.50 278.50 L 724.77 305.75 L 725.03 333.00 L 730.00 333.00 L 730.00 276.00 L 740.00 276.00 L 740.00 304.50 C740.00,322.83 740.36,333.00 741.00,333.00 C741.64,333.00 742.00,324.17 742.00,308.50 L 742.00 333.00 L 748.00 333.00 L 748.00 308.50 C748.00,328.41 748.25,332.88 749.40,333.32 C750.17,333.62 751.07,333.59 751.40,333.26 C751.73,332.94 751.99,320.74 752.00,306.00 L 752.00 333.00 L 773.00 333.00 L 773.00 279.00 L 752.00 279.00 L 752.00 277.93 L 762.75 278.22 L 773.50 278.50 L 773.77 305.75 C773.93,322.77 774.40,333.00 775.02,333.00 C775.64,333.00 776.00,321.83 776.00,302.50 L 776.00 272.00 L 788.00 272.00 L 788.00 302.39 C788.00,328.49 788.21,332.87 789.50,333.36 C790.81,333.86 791.00,330.75 791.00,308.97 L 791.00 284.00 L 792.00 284.00 L 792.00 333.00 L 811.00 333.00 L 811.00 284.00 L 811.97 284.00 L 812.25 308.75 C812.51,331.10 812.56,330.18 812.77,299.25 L 813.00 265.00 L 814.00 265.00 L 814.00 333.00 L 826.00 333.00 L 826.00 299.00 C826.00,328.56 826.20,333.00 827.50,333.00 C828.80,333.00 829.00,329.17 829.00,304.50 L 829.00 276.00 L 839.00 276.00 L 839.00 304.50 C839.00,329.17 839.20,333.00 840.50,333.00 C841.80,333.00 842.00,328.56 842.00,299.00 L 842.00 265.00 L 843.00 265.00 L 843.00 333.00 L 854.00 333.00 L 854.01 301.25 C854.02,283.79 854.30,268.49 854.63,267.25 C855.21,265.10 854.97,265.00 849.12,265.00 L 855.00 265.00 L 855.00 299.00 C855.00,328.56 855.20,333.00 856.50,333.00 C857.80,333.00 858.00,329.17 858.00,304.50 L 858.00 276.00 L 868.00 276.00 L 868.00 304.50 C868.00,328.10 868.24,333.00 869.38,333.00 C871.65,333.00 871.97,329.60 871.99,305.25 L 872.00 282.00 L 872.00 333.00 L 897.00 333.00 L 897.00 224.00 L 531.00 224.00 L 531.00 333.00 L 537.00 333.00 L 537.00 276.00 L 547.00 276.00 L 547.00 304.50 C547.00,322.83 547.36,333.00 548.00,333.00 C548.64,333.00 549.00,324.17 549.00,308.50 ZM 544.00 396.00 L 554.00 396.00 L 554.02 423.25 C554.02,439.12 554.44,451.13 555.00,452.00 C555.64,452.99 555.97,444.90 555.98,428.19 L 556.00 404.00 L 556.00 402.87 L 562.50 403.50 L 562.77 428.25 C563.00,449.33 563.25,453.00 564.52,453.00 C565.59,453.00 565.92,450.32 566.06,436.03 C566.13,445.33 566.36,452.02 566.64,452.31 C567.02,452.69 571.98,453.00 577.67,453.00 L 588.00 453.00 L 588.00 426.00 C588.00,443.33 588.36,453.00 589.00,453.00 C589.64,453.00 590.00,442.17 590.00,422.50 L 590.00 392.00 L 602.00 392.00 L 602.00 422.50 C602.00,452.33 602.04,453.00 604.00,453.00 C605.95,453.00 606.00,452.33 606.00,428.50 L 606.00 453.00 L 626.00 453.00 L 626.00 428.56 C626.00,444.68 626.34,452.91 627.00,452.50 C627.63,452.11 627.99,439.87 628.00,419.00 L 628.00 453.00 L 640.00 453.00 L 640.00 388.40 L 640.24 418.67 C640.44,444.52 640.79,452.43 641.75,452.75 C642.73,453.08 643.00,447.01 643.00,424.58 L 643.00 396.00 L 653.00 396.00 L 653.00 424.50 C653.00,452.33 653.05,453.00 655.00,453.00 C656.93,453.00 657.00,452.34 657.00,427.50 L 657.00 453.00 L 675.00 453.00 L 675.00 402.00 L 657.00 402.00 L 657.00 400.92 L 666.25 401.21 L 675.50 401.50 L 675.77 427.25 C675.93,443.27 676.41,453.00 677.02,453.00 C677.64,453.00 678.00,442.51 678.00,424.50 L 678.00 396.00 L 688.00 396.00 L 688.00 424.50 C688.00,442.83 688.36,453.00 689.00,453.00 C689.64,453.00 690.00,444.17 690.00,428.50 L 690.00 453.00 L 696.00 453.00 L 696.00 428.50 C696.00,452.33 696.05,453.00 698.00,453.00 C699.94,453.00 700.00,452.34 700.00,426.00 L 700.00 453.00 L 721.00 453.00 L 721.00 399.00 L 700.00 399.00 L 700.00 398.00 L 710.14 398.00 C717.46,398.00 720.59,397.62 721.39,396.64 C722.00,395.90 725.86,394.07 729.97,392.58 C731.20,392.14 732.23,391.77 733.10,391.48 C731.68,391.98 729.86,392.68 727.50,393.57 C723.84,394.97 721.62,396.38 721.80,397.18 C721.96,397.91 726.43,410.75 731.73,425.72 C741.29,452.71 741.40,452.94 743.94,452.33 C748.53,451.23 756.95,447.89 757.54,446.93 C758.01,446.17 742.61,400.77 738.97,392.19 C738.88,391.99 738.81,391.81 738.73,391.65 C739.40,392.58 740.08,393.75 740.26,394.28 C740.47,394.91 741.96,394.78 744.27,393.95 C746.29,393.21 748.21,392.87 748.52,393.19 C749.05,393.71 769.00,448.78 769.00,449.70 C769.00,449.92 767.54,450.73 765.75,451.51 L 762.50 452.92 L 767.75 452.96 L 773.00 453.00 L 773.00 396.00 L 783.00 396.00 L 783.00 424.50 C783.00,442.83 783.36,453.00 784.00,453.00 C784.64,453.00 785.00,444.17 785.00,428.50 L 785.00 453.00 L 791.00 453.00 L 791.00 428.50 C791.00,452.33 791.05,453.00 793.00,453.00 C794.94,453.00 795.00,452.34 795.00,426.00 L 795.00 453.00 L 816.00 453.00 L 816.00 399.00 L 795.00 399.00 L 795.00 398.00 L 817.00 398.00 L 817.00 453.00 L 822.00 453.00 L 822.00 396.00 L 832.00 396.00 L 832.00 424.50 C832.00,442.83 832.36,453.00 833.00,453.00 C833.64,453.00 834.00,444.17 834.00,428.50 L 834.00 453.00 L 840.00 453.00 L 840.00 428.50 C840.00,452.33 840.05,453.00 842.00,453.00 C843.95,453.00 844.00,452.33 844.00,426.00 L 844.00 453.00 L 854.39 453.00 C862.95,453.00 864.89,452.72 865.39,451.42 C865.73,450.55 866.00,438.40 866.00,424.42 L 866.00 426.00 C866.00,443.33 866.36,453.00 867.00,453.00 C867.64,453.00 868.00,442.17 868.00,422.50 L 868.00 392.00 L 880.00 392.00 L 880.00 453.00 L 897.00 453.00 L 897.00 343.00 L 531.00 343.00 L 531.00 453.00 L 544.00 453.00 ZM 276.77 305.67 L 277.00 281.29 L 277.00 333.00 L 298.00 333.00 L 298.00 279.00 L 277.02 279.00 L 277.03 278.00 L 299.00 278.00 L 299.00 305.50 C299.00,323.17 299.36,333.00 300.00,333.00 C300.64,333.00 301.00,322.17 301.00,302.50 L 301.00 272.00 L 313.00 272.00 L 313.00 302.50 C313.00,328.94 313.20,333.00 314.50,333.00 C315.79,333.00 316.00,329.61 316.00,308.50 L 316.00 284.00 L 317.00 284.00 L 317.00 333.00 L 336.00 333.00 L 336.00 284.00 L 336.97 284.00 L 337.25 309.25 C337.37,319.64 337.44,325.16 337.51,325.16 C337.59,325.16 337.65,317.07 337.77,299.75 L 338.00 265.00 L 339.00 265.00 L 339.00 333.00 L 351.00 333.00 L 351.00 299.00 C351.00,328.56 351.20,333.00 352.50,333.00 C353.80,333.00 354.00,329.17 354.00,304.50 L 354.00 276.00 L 364.00 276.00 L 364.00 304.50 C364.00,332.33 364.05,333.00 366.00,333.00 C367.95,333.00 368.00,332.33 368.00,307.50 L 368.00 333.00 L 386.00 333.00 L 386.00 307.50 C386.00,329.50 386.21,333.00 387.50,333.00 C388.80,333.00 389.00,329.17 389.00,304.50 L 389.00 276.00 L 399.00 276.00 L 399.07 304.75 C399.11,321.73 399.49,332.68 400.00,331.50 C400.47,330.40 400.89,319.26 400.93,306.75 L 401.00 284.00 L 401.00 333.00 L 407.00 333.00 L 407.00 308.50 C407.00,329.49 407.21,333.00 408.48,333.00 C409.75,333.00 410.01,329.05 410.23,305.75 L 410.50 278.50 L 432.50 278.50 L 432.77 305.75 L 433.03 333.00 L 449.00 333.00 L 449.00 224.00 L 244.00 224.00 L 244.00 333.00 L 255.00 333.00 L 255.00 276.00 L 265.00 276.00 L 265.00 304.50 C265.00,322.83 265.36,333.00 266.00,333.00 C266.64,333.00 267.00,324.17 267.00,308.50 L 267.00 333.00 L 273.00 333.00 L 273.00 308.50 C273.00,321.81 273.31,332.98 273.69,333.35 C276.09,335.76 276.51,331.93 276.77,305.67 ZM 1222.22 215.01 C1214.74,217.32 1199.31,217.61 1192.00,215.57 C1174.22,210.60 1159.15,195.36 1154.36,177.50 C1152.32,169.88 1152.62,155.43 1154.99,147.78 C1158.79,135.48 1170.01,122.07 1181.29,116.35 C1216.43,98.55 1256.93,121.62 1259.68,161.00 C1261.32,184.47 1245.02,207.97 1222.22,215.01 ZM 1194.10 209.42 C1209.75,213.62 1226.57,209.20 1238.76,197.66 C1248.43,188.52 1253.05,177.79 1253.10,164.35 C1253.14,154.69 1251.92,149.59 1247.66,141.53 C1243.20,133.11 1235.64,125.92 1226.45,121.38 C1219.55,117.97 1217.81,117.54 1209.29,117.17 C1197.61,116.66 1189.40,118.64 1181.22,123.96 C1155.32,140.79 1151.42,175.43 1173.00,197.00 C1179.18,203.19 1186.12,207.27 1194.10,209.42 ZM 1140.00 229.00 L 1140.00 240.00 L 944.00 240.00 L 944.00 229.00 L 954.00 229.00 L 954.00 168.00 L 959.39 168.00 C963.39,168.00 964.94,168.41 965.39,169.58 C965.73,170.45 966.00,184.18 966.00,200.08 L 966.00 229.00 L 1007.00 229.00 L 1007.00 171.89 L 1016.50 172.50 L 1017.03 229.00 L 1036.00 229.00 L 1036.00 172.00 L 1040.38 172.00 C1044.08,172.00 1044.86,172.35 1045.37,174.25 C1045.70,175.49 1045.98,188.31 1045.99,202.75 L 1046.00 229.00 L 1066.00 229.00 C1077.00,229.00 1086.00,228.81 1086.00,228.57 C1086.00,228.34 1082.14,217.43 1077.41,204.32 C1072.69,191.22 1068.13,178.54 1067.28,176.14 C1065.98,172.45 1065.95,171.64 1067.12,170.88 C1069.45,169.37 1073.10,168.70 1074.01,169.62 C1074.85,170.49 1094.00,223.50 1094.00,224.97 C1094.00,225.39 1092.31,226.42 1090.25,227.27 C1086.73,228.71 1088.16,228.81 1113.25,228.90 ZM 1169.00 324.00 L 1169.00 335.00 L 973.00 335.00 L 973.00 324.00 L 981.00 324.00 L 981.00 270.00 L 990.00 270.00 L 990.00 324.00 L 1090.00 324.00 L 1090.00 270.00 L 1099.00 270.00 L 1099.00 324.00 L 1125.00 324.00 L 1125.00 270.00 L 1134.00 270.00 L 1134.00 324.00 ZM 411.00 279.00 L 411.00 333.00 L 432.00 333.00 L 432.00 279.00 ZM 460.00 598.09 L 463.49 597.44 C467.53,596.68 511.56,597.23 512.38,598.05 C512.69,598.35 513.06,615.45 513.22,636.05 L 513.48 671.35 C513.12,670.85 512.43,670.35 511.61,670.04 C506.08,667.94 506.00,667.39 506.00,631.28 L 506.00 598.00 L 463.00 598.00 L 463.00 631.88 C463.00,660.77 462.78,665.94 461.50,667.00 C460.67,667.68 460.00,669.54 460.00,671.12 ZM 614.00 302.00 L 614.00 312.00 L 558.00 312.00 L 558.00 302.00 ZM 752.00 551.00 L 760.00 551.00 L 760.00 552.28 L 753.85 551.64 C750.47,551.29 738.10,551.00 726.35,551.00 L 705.00 551.00 L 705.00 552.11 L 696.50 551.50 L 696.50 541.50 L 752.00 540.97 ZM 741.00 452.44 C741.00,451.45 723.85,403.56 722.94,402.00 C722.42,401.11 722.05,411.14 722.03,426.75 L 722.00 453.00 L 731.50 453.00 C736.72,453.00 741.00,452.75 741.00,452.44 ZM 460.00 324.00 L 513.00 324.00 L 513.00 350.00 L 506.00 350.00 L 506.00 325.00 L 463.00 325.00 L 463.00 350.00 L 460.00 350.00 ZM 460.00 415.00 L 513.00 415.00 L 513.00 441.00 L 506.00 441.00 L 506.00 416.00 L 463.00 416.00 L 463.00 441.00 L 460.00 441.00 ZM 460.00 476.00 L 463.00 476.00 L 463.00 501.00 L 506.00 501.00 L 506.00 476.00 L 513.00 476.00 L 513.00 502.00 L 460.00 502.00 ZM 460.00 506.00 L 513.00 506.00 L 513.00 532.00 L 506.00 532.00 L 506.00 507.00 L 463.00 507.00 L 463.00 532.00 L 460.00 532.00 ZM 460.00 567.00 L 463.00 567.00 L 463.00 592.00 L 506.00 592.00 L 506.00 567.00 L 513.00 567.00 L 513.00 593.00 L 460.00 593.00 ZM 556.00 404.00 L 556.00 453.00 L 562.00 453.00 L 562.00 404.00 L 556.00 404.00 ZM 460.00 276.62 C460.00,264.62 460.07,264.21 462.25,263.63 C465.23,262.83 501.06,262.84 507.75,263.65 L 513.00 264.28 L 513.00 289.00 L 506.00 289.00 L 506.00 264.00 L 463.00 264.00 L 463.00 289.00 L 460.00 289.00 ZM 461.25 410.34 C460.34,409.97 460.00,406.41 460.00,397.42 L 460.00 385.00 L 463.00 385.00 L 463.00 410.00 L 506.00 410.00 L 506.00 385.00 L 513.00 385.00 L 513.00 409.72 L 507.75 410.35 C501.61,411.09 463.08,411.08 461.25,410.34 ZM 461.75 319.31 C460.20,318.91 460.00,317.42 460.00,306.43 L 460.00 294.00 L 463.00 294.00 L 463.00 319.00 L 506.00 319.00 L 506.00 294.00 L 513.00 294.00 L 513.00 318.72 L 507.75 319.35 C501.88,320.06 464.48,320.02 461.75,319.31 ZM 263.53 698.75 L 261.12 708.25 L 263.94 697.00 L 271.46 667.00 L 323.87 667.00 L 324.65 669.25 C324.72,669.47 324.86,669.90 325.04,670.50 L 270.67 670.50 ZM 513.00 259.00 L 506.00 259.00 L 506.00 233.00 L 513.00 233.00 ZM 513.00 380.00 L 506.00 380.00 L 506.00 355.00 L 513.00 355.00 ZM 513.00 471.00 L 506.00 471.00 L 506.00 446.00 L 513.00 446.00 ZM 513.00 562.00 L 506.00 562.00 L 506.00 537.00 L 513.00 537.00 ZM 375.32 530.29 C373.77,529.96 370.35,529.76 367.25,529.84 L 362.74 529.96 C363.64,529.66 364.00,527.79 364.21,522.75 C364.48,516.00 364.66,515.48 366.85,515.17 C368.15,514.98 370.28,515.11 371.60,515.44 C373.84,516.00 374.00,516.49 374.00,522.91 C374.00,527.17 374.30,529.32 375.32,530.29 ZM 263.59 673.10 C263.86,671.93 264.00,671.25 264.00,671.10 C264.00,670.35 259.24,670.00 249.12,670.00 C237.12,670.00 234.00,669.71 233.00,668.50 C232.26,667.61 230.49,667.21 225.77,667.06 C229.22,667.02 233.03,667.00 237.02,667.00 L 265.04 667.00 L 264.41 669.75 C264.33,670.10 264.04,671.29 263.59,673.10 ZM 460.00 233.00 L 463.00 233.00 L 463.00 259.00 L 460.00 259.00 ZM 460.00 355.00 L 463.00 355.00 L 463.00 380.00 L 460.00 380.00 ZM 460.00 446.00 L 463.00 446.00 L 463.00 471.00 L 460.00 471.00 ZM 460.00 537.00 L 463.00 537.00 L 463.00 562.00 L 460.00 562.00 ZM 903.51 708.77 L 904.40 697.24 C905.33,685.28 906.33,673.14 906.62,670.25 L 907.14 665.00 L 922.35 665.00 L 920.00 667.50 C918.08,669.55 916.71,670.00 912.44,670.00 L 907.23 670.00 L 906.64 674.25 C906.32,676.59 905.30,687.64 904.36,698.82 C904.02,702.90 903.75,706.17 903.51,708.77 ZM 837.03 696.25 L 844.82 665.50 L 849.38 665.20 C849.82,665.17 850.23,665.13 850.60,665.09 C851.59,664.99 852.31,664.91 852.89,665.17 C854.62,665.94 855.02,669.73 857.32,684.85 C856.75,681.38 856.12,677.52 855.42,673.20 L 854.89 669.90 L 849.28 670.20 L 843.67 670.50 L 836.42 698.75 L 834.03 708.07 ZM 759.98 451.75 C759.98,451.06 759.55,449.84 759.04,449.03 C758.23,447.76 757.42,447.81 752.81,449.43 C744.06,452.50 743.99,452.94 752.25,452.97 C757.81,452.99 760.00,452.65 759.98,451.75 ZM 825.00 517.50 C825.00,518.62 826.20,519.00 829.75,519.00 L 834.50 519.00 L 823.25 519.00 L 813.50 519.00 L 812.00 519.00 L 812.00 511.50 C812.00,517.50 812.30,519.00 813.50,519.00 C814.33,519.00 815.00,518.33 815.00,517.50 C815.00,516.37 816.22,516.00 820.00,516.00 C823.78,516.00 825.00,516.37 825.00,517.50 ZM 864.96 715.75 C867.23,716.24 873.37,716.82 880.25,717.16 C885.49,717.42 890.77,717.74 894.48,718.02 C891.29,717.80 887.20,717.57 882.95,717.39 C874.45,717.02 866.57,716.37 865.44,715.95 C865.27,715.89 865.11,715.83 864.96,715.75 ZM 362.23 529.97 L 361.00 530.00 L 361.00 517.00 C361.00,527.01 361.22,529.66 362.23,529.97 ZM 851.18 657.68 C851.44,657.58 851.66,657.44 851.86,657.27 C852.58,656.63 852.86,655.50 852.84,653.53 C852.94,654.66 852.99,655.44 853.00,655.75 C853.00,656.83 852.98,657.39 851.18,657.68 ZM 797.90 519.49 C798.66,519.21 799.38,519.00 799.58,519.00 C799.81,519.00 800.00,515.62 800.00,511.50 L 800.00 518.92 ZM 374.77 693.73 C373.98,695.60 372.88,696.15 370.71,697.41 C370.47,697.55 370.21,697.69 369.93,697.83 C372.19,696.59 373.90,695.17 374.77,693.73 ZM 877.00 500.38 L 877.00 508.00 L 876.82 508.00 ZM 950.67 444.61 C953.30,445.09 955.30,444.81 957.16,443.74 C955.92,444.56 954.67,445.00 953.49,445.00 C952.72,445.00 951.74,444.85 950.67,444.61 ZM 908.54 404.57 C910.18,401.68 912.38,399.29 914.86,397.79 C912.55,399.21 910.20,401.80 908.54,404.57 ZM 941.17 440.18 C940.31,438.95 940.50,438.11 942.01,435.99 C940.80,437.68 940.48,439.01 941.17,440.18 ZM 406.66 395.43 C407.98,394.70 410.04,393.82 412.80,392.81 C412.99,392.74 413.17,392.68 413.35,392.61 C410.86,393.57 408.34,394.63 406.66,395.43 ZM 860.92 705.54 C861.68,709.11 862.39,711.77 863.01,713.46 C862.38,712.00 861.74,709.61 860.92,705.54 ZM 380.65 581.70 C378.97,575.28 376.33,571.40 372.50,569.28 C376.37,571.43 378.98,575.19 380.65,581.70 ZM 827.25 708.65 L 822.59 727.00 L 822.58 727.00 ZM 960.92 440.06 C961.90,438.71 962.87,437.10 963.57,435.62 C962.78,437.29 961.88,438.78 960.92,440.06 ZM 421.41 390.13 C421.41,390.13 421.41,390.14 421.41,390.14 C421.46,390.19 421.70,390.81 422.10,391.87 C421.70,390.81 421.46,390.19 421.41,390.14 C421.41,390.14 421.41,390.13 421.41,390.13 ZM 566.12 399.76 L 566.12 399.75 C566.12,399.74 566.12,399.74 566.12,399.73 Z" fill="rgb(69,150,228)"/>
<path d="M 0.00 0.00 L 1443.00 0.00 L 1443.00 727.00 L 1336.00 727.00 C1277.15,727.00 1229.00,726.77 1229.00,726.48 C1229.00,726.19 1225.62,712.78 1221.50,696.66 C1217.38,680.55 1214.00,666.85 1214.00,666.22 C1214.00,665.47 1217.01,664.98 1222.75,664.79 L 1231.50 664.50 L 1232.13 658.00 L 1077.28 658.00 L 1154.39 657.99 C1238.13,657.97 1238.22,657.96 1249.24,652.38 C1256.28,648.81 1266.10,639.16 1269.86,632.12 C1275.73,621.10 1276.00,618.54 1275.98,575.04 C1275.96,538.55 1275.81,535.18 1274.08,531.37 C1273.05,529.10 1271.71,526.94 1271.10,526.56 C1270.34,526.09 1270.00,516.25 1270.00,494.27 C1270.00,466.26 1269.81,462.45 1268.34,460.83 C1266.81,459.13 1264.43,459.00 1234.82,459.00 L 1202.95 459.00 L 1201.97 456.25 C1199.07,448.12 1195.16,443.52 1188.50,440.38 C1181.88,437.26 1171.58,437.16 1161.82,440.12 C1154.33,442.40 1147.59,442.22 1143.93,439.66 C1141.34,437.85 1132.46,439.23 1126.14,442.43 C1121.09,444.99 1112.68,453.29 1111.56,456.83 L 1110.87 459.00 L 979.08 459.00 L 982.30 463.29 C982.01,462.92 981.73,462.58 981.46,462.28 C974.83,454.70 964.97,450.01 954.08,449.27 C946.01,448.71 945.85,448.75 942.70,451.74 C938.53,455.69 933.86,458.00 930.02,458.00 C926.34,458.00 921.00,455.91 919.23,453.78 C918.17,452.50 918.29,452.16 919.98,451.72 C921.52,451.31 922.00,450.36 922.00,447.68 C922.00,444.51 921.56,443.97 917.46,441.98 C912.44,439.55 908.52,434.59 906.89,428.58 C906.44,426.90 905.39,424.94 904.32,423.66 C905.63,424.39 906.00,422.83 906.00,418.38 C906.00,412.77 905.99,412.76 903.75,414.24 C901.38,415.81 900.61,418.46 901.66,420.72 C900.48,418.52 901.05,416.01 903.38,414.48 C904.69,413.63 906.05,411.49 906.40,409.74 C906.41,409.69 906.42,409.65 906.43,409.61 C906.45,409.54 906.47,409.48 906.49,409.42 C906.99,407.70 907.69,406.07 908.54,404.57 C910.20,401.80 912.55,399.21 914.86,397.79 C915.05,397.68 915.25,397.57 915.44,397.46 L 918.64 395.74 L 923.72 400.82 C931.72,408.82 943.17,415.58 951.00,416.92 C953.91,417.42 954.55,417.99 954.82,420.33 C955.30,424.46 952.59,428.00 948.95,428.00 C946.63,428.00 945.72,428.60 944.95,430.63 C944.40,432.08 943.08,434.49 942.01,435.99 C941.09,437.27 940.69,438.35 940.85,439.30 C940.19,438.72 938.72,439.23 935.81,440.93 C933.99,441.99 930.81,443.16 928.75,443.54 C925.65,444.10 925.00,444.64 925.00,446.61 C925.00,449.32 927.76,449.80 932.68,447.94 C936.07,446.66 941.00,442.14 941.00,440.31 C941.00,440.14 940.99,439.98 940.96,439.85 C941.05,439.96 941.11,440.07 941.17,440.18 C941.88,441.36 943.61,442.36 946.50,443.41 C948.06,443.98 949.44,444.38 950.67,444.61 C951.74,444.85 952.72,445.00 953.49,445.00 C954.67,445.00 955.92,444.56 957.16,443.74 C957.59,443.49 958.01,443.20 958.43,442.87 C959.14,442.32 960.03,441.29 960.92,440.06 C961.88,438.78 962.78,437.29 963.57,435.62 C964.91,432.81 967.13,428.97 968.50,427.10 C971.99,422.35 971.75,418.27 967.65,412.89 C965.80,410.48 963.95,407.38 963.54,406.00 C962.45,402.42 956.99,397.00 954.45,397.00 C952.96,397.00 951.38,395.52 949.29,392.16 C945.08,385.38 939.04,382.49 929.25,382.54 L 922.00 382.58 L 922.00 188.91 L 919.55 186.45 L 917.09 184.00 L 510.91 184.00 L 508.45 186.45 C506.02,188.89 506.00,189.04 506.00,208.45 L 506.00 228.00 L 463.00 228.00 L 463.00 208.45 C463.00,189.04 462.98,188.89 460.55,186.45 L 458.09 184.00 L 234.91 184.00 L 230.00 188.91 L 230.00 383.96 L 226.10 385.95 C223.16,387.45 221.04,389.42 219.66,392.06 C218.05,394.80 217.60,397.14 217.56,402.43 C217.50,408.92 217.68,409.53 219.65,409.81 C222.25,410.18 233.19,405.34 239.37,401.09 C244.82,397.34 245.22,397.29 243.97,400.57 C243.07,402.93 243.17,403.08 245.24,402.43 C246.47,402.03 249.16,400.60 251.21,399.24 C253.27,397.88 255.58,397.01 256.35,397.30 C258.38,398.08 262.00,406.10 262.00,409.82 C262.00,411.87 262.49,413.00 263.39,413.00 C263.42,413.00 263.45,413.00 263.48,413.00 C261.87,413.08 259.57,419.44 260.39,421.58 C261.12,423.48 264.29,421.98 265.36,419.38 C265.40,422.39 265.32,426.81 265.19,433.29 C264.84,451.01 264.82,451.08 262.67,450.41 C259.33,449.37 257.66,448.92 256.83,447.83 C255.99,446.74 255.99,445.01 256.00,441.38 C256.00,441.11 256.00,440.82 256.00,440.52 C256.00,436.39 255.73,433.00 255.39,433.00 C255.06,433.00 253.45,434.12 251.82,435.50 C250.18,436.88 248.21,438.00 247.42,438.00 C246.53,438.00 246.01,439.03 246.01,440.75 C246.04,445.89 247.09,448.00 249.62,448.00 C253.07,448.00 252.61,450.66 248.75,453.01 C243.69,456.10 238.74,455.49 225.21,450.10 C218.93,447.60 215.13,447.47 208.23,449.52 C201.88,451.41 198.68,454.01 194.51,461.36 L 197.85 455.00 L 156.25 455.00 C118.95,455.00 114.47,455.17 112.83,456.65 C111.12,458.20 111.00,460.72 110.96,493.90 L 110.92 529.50 L 105.96 531.83 C102.37,533.51 100.30,535.34 98.50,538.42 L 96.00 542.68 L 96.00 582.37 C96.00,619.78 96.12,622.41 98.06,628.17 C103.19,643.42 114.09,653.97 130.00,659.11 C135.11,660.76 142.19,660.90 228.75,660.95 C287.46,660.98 315.63,660.74 321.03,660.16 C315.61,660.75 287.33,661.00 228.43,661.00 L 134.87 661.00 L 135.18 663.75 C135.49,666.39 135.76,666.51 141.75,666.80 C145.19,666.96 148.02,667.41 148.04,667.80 C148.06,668.18 144.80,681.66 140.79,697.75 L 133.51 727.00 L 0.00 727.00 ZM 263.53 698.75 L 270.67 670.50 L 325.04 670.50 C325.86,673.22 327.65,679.44 329.48,685.96 L 333.54 700.43 L 339.52 702.29 C341.48,702.91 342.74,703.33 344.04,703.53 C346.75,703.94 349.61,703.35 359.24,701.35 C359.81,701.24 360.39,701.11 361.00,700.99 C364.40,700.29 367.49,699.17 369.93,697.83 C370.21,697.69 370.47,697.55 370.71,697.41 C372.88,696.15 373.98,695.60 374.77,693.73 C375.07,693.24 375.27,692.74 375.36,692.26 C376.23,687.73 377.11,681.81 377.96,675.12 L 378.61 670.50 L 416.30 670.24 C453.50,669.98 454.00,670.00 454.00,671.99 L 454.00 674.00 L 460.00 674.00 L 460.00 671.12 C460.00,669.54 460.67,667.68 461.50,667.00 C462.78,665.94 463.00,660.77 463.00,631.88 L 463.00 598.00 L 506.00 598.00 L 506.00 631.28 C506.00,667.39 506.08,667.94 511.61,670.04 C512.43,670.35 513.12,670.85 513.48,671.35 L 513.50 673.50 L 516.25 673.82 L 519.00 674.13 L 519.00 670.00 L 836.00 670.00 L 836.00 672.14 C836.00,673.15 833.75,682.83 830.77,694.78 C830.61,695.39 830.45,696.01 830.30,696.63 L 827.25 708.65 L 827.24 708.66 L 822.58 727.00 L 607.39 727.00 C402.93,727.00 392.21,726.91 392.65,725.25 C393.03,723.80 392.26,723.58 381.38,724.06 C387.59,723.77 391.99,723.41 392.37,723.03 C393.97,721.43 392.03,717.07 389.04,715.52 C385.22,713.54 383.13,713.60 380.58,715.75 C378.52,717.49 378.52,717.48 380.32,715.34 C382.12,713.22 382.10,713.18 379.00,712.50 C376.68,711.99 375.30,712.29 373.68,713.65 C371.58,715.42 371.58,715.39 373.76,712.92 C375.00,711.51 375.71,710.05 375.34,709.68 C374.97,709.30 371.20,709.00 366.96,709.00 C361.32,709.00 358.91,709.40 358.00,710.50 C357.32,711.33 356.28,712.00 355.69,712.00 C355.11,712.00 353.51,713.01 352.15,714.25 C349.64,716.53 350.06,714.95 352.81,711.75 C354.22,710.10 353.78,710.00 345.17,710.00 C336.50,710.00 336.01,710.11 335.58,712.25 C334.44,717.90 334.02,723.22 334.63,724.21 C334.78,724.46 336.77,724.62 339.92,724.71 C335.55,724.77 334.00,725.09 334.00,725.75 C334.00,726.73 325.58,727.00 295.21,727.00 L 256.43 727.00 L 261.12 708.25 ZM 903.51 708.77 C903.75,706.17 904.02,702.90 904.36,698.82 C905.30,687.64 906.32,676.59 906.64,674.25 L 907.23 670.00 L 912.44 670.00 C916.71,670.00 918.08,669.55 920.00,667.50 L 922.35 665.00 L 988.84 665.00 L 989.37 667.75 C989.66,669.26 990.18,672.53 990.53,675.00 C991.52,681.93 994.96,695.02 996.65,698.30 L 998.18 701.24 L 1010.09 700.82 C1016.75,700.58 1022.49,699.91 1023.10,699.30 C1023.80,698.60 1024.14,692.40 1024.05,681.61 L 1023.92 665.00 L 1043.51 665.00 L 1047.39 682.75 C1049.52,692.51 1051.67,701.58 1052.16,702.90 L 1053.07 705.30 L 1064.78 704.64 C1071.23,704.27 1077.80,703.69 1079.38,703.34 L 1082.26 702.72 L 1081.57 695.11 C1081.19,690.92 1080.32,682.44 1079.63,676.25 L 1078.37 665.00 L 1119.79 665.00 C1152.50,665.00 1161.12,665.26 1160.77,666.25 C1160.53,666.94 1156.99,680.88 1152.92,697.24 L 1145.50 726.98 L 1111.50 726.99 L 1077.50 727.00 L 1077.35 724.35 C1077.26,722.89 1076.89,719.29 1076.52,716.35 L 1075.86 711.00 L 1066.68 711.08 C1061.63,711.12 1058.07,711.39 1058.76,711.67 C1059.46,711.95 1060.53,713.15 1061.16,714.34 C1062.25,716.43 1062.23,716.44 1060.32,714.75 C1058.02,712.71 1054.81,712.21 1056.80,714.20 C1057.46,714.86 1058.00,715.79 1058.00,716.27 C1058.00,716.75 1057.29,716.44 1056.43,715.57 C1055.56,714.71 1054.35,714.00 1053.73,714.00 C1052.93,714.00 1052.95,714.35 1053.80,715.20 C1055.74,717.14 1055.17,718.47 1053.17,716.65 C1050.46,714.20 1047.21,714.64 1043.93,717.91 C1041.70,720.14 1041.10,721.55 1041.38,723.91 L 1041.74 727.00 L 1030.12 726.99 L 1018.50 726.98 L 1018.22 720.36 C1017.79,710.38 1017.41,710.00 1007.96,710.00 C1000.03,710.00 998.65,710.64 1001.50,713.00 C1002.33,713.68 1003.00,714.64 1003.00,715.12 C1003.00,715.61 1002.10,715.10 1001.00,714.00 C998.09,711.09 996.67,711.55 998.69,714.75 C1000.41,717.49 1000.41,717.49 998.38,715.75 C997.26,714.79 995.76,714.00 995.05,714.00 C994.00,714.00 994.01,714.33 995.08,715.75 C996.21,717.24 996.19,717.31 995.00,716.25 C992.87,714.35 988.58,714.75 985.54,717.14 C983.25,718.95 982.88,719.90 983.19,723.14 L 983.55 727.00 L 902.00 727.00 L 902.00 723.11 C902.00,720.66 901.61,719.30 900.35,718.63 L 902.71 718.98 ZM 1222.22 215.01 C1245.02,207.97 1261.32,184.47 1259.68,161.00 C1256.93,121.62 1216.43,98.55 1181.29,116.35 C1170.01,122.07 1158.79,135.48 1154.99,147.78 C1152.62,155.43 1152.32,169.88 1154.36,177.50 C1159.15,195.36 1174.22,210.60 1192.00,215.57 C1199.31,217.61 1214.74,217.32 1222.22,215.01 ZM 1194.10 209.42 C1186.12,207.27 1179.18,203.19 1173.00,197.00 C1151.42,175.43 1155.32,140.79 1181.22,123.96 C1189.40,118.64 1197.61,116.66 1209.29,117.17 C1217.81,117.54 1219.55,117.97 1226.45,121.38 C1235.64,125.92 1243.20,133.11 1247.66,141.53 C1251.92,149.59 1253.14,154.69 1253.10,164.35 C1253.05,177.79 1248.43,188.52 1238.76,197.66 C1226.57,209.20 1209.75,213.62 1194.10,209.42 ZM 1140.00 229.00 L 1113.25 228.90 C1088.16,228.81 1086.73,228.71 1090.25,227.27 C1092.31,226.42 1094.00,225.39 1094.00,224.97 C1094.00,223.50 1074.85,170.49 1074.01,169.62 C1073.10,168.70 1069.45,169.37 1067.12,170.88 C1065.95,171.64 1065.98,172.45 1067.28,176.14 C1068.13,178.54 1072.69,191.22 1077.41,204.32 C1082.14,217.43 1086.00,228.34 1086.00,228.57 C1086.00,228.81 1077.00,229.00 1066.00,229.00 L 1046.00 229.00 L 1045.99 202.75 C1045.98,188.31 1045.70,175.49 1045.37,174.25 C1044.86,172.35 1044.08,172.00 1040.38,172.00 L 1036.00 172.00 L 1036.00 229.00 L 1017.03 229.00 L 1016.50 172.50 L 1007.00 171.89 L 1007.00 229.00 L 966.00 229.00 L 966.00 200.08 C966.00,184.18 965.73,170.45 965.39,169.58 C964.94,168.41 963.39,168.00 959.39,168.00 L 954.00 168.00 L 954.00 229.00 L 944.00 229.00 L 944.00 240.00 L 1140.00 240.00 ZM 140.00 726.38 C140.00,725.88 148.05,694.14 154.11,670.75 L 155.08 667.00 L 201.92 667.00 L 202.89 670.75 C208.95,694.14 217.00,725.88 217.00,726.38 C217.00,726.72 199.68,727.00 178.50,727.00 C157.32,727.00 140.00,726.72 140.00,726.38 ZM 1169.00 324.00 L 1134.00 324.00 L 1134.00 270.00 L 1125.00 270.00 L 1125.00 324.00 L 1099.00 324.00 L 1099.00 270.00 L 1090.00 270.00 L 1090.00 324.00 L 990.00 324.00 L 990.00 270.00 L 981.00 270.00 L 981.00 324.00 L 973.00 324.00 L 973.00 335.00 L 1169.00 335.00 ZM 1152.02 726.75 C1152.04,726.61 1155.57,712.78 1159.88,696.00 L 1167.70 665.50 L 1187.35 665.23 C1198.16,665.08 1207.00,665.20 1207.00,665.50 C1207.00,665.80 1210.38,679.22 1214.50,695.34 C1218.62,711.45 1222.00,725.16 1222.00,725.82 C1222.00,726.71 1213.29,727.00 1187.00,727.00 C1167.75,727.00 1152.01,726.89 1152.02,726.75 ZM 216.21 697.75 C212.20,681.66 208.94,668.16 208.96,667.75 C208.98,667.44 215.91,667.18 225.77,667.06 C230.49,667.21 232.26,667.61 233.00,668.50 C234.00,669.71 237.12,670.00 249.12,670.00 C259.24,670.00 264.00,670.35 264.00,671.10 C264.00,671.25 263.86,671.92 263.59,673.10 L 263.59 673.10 C261.01,683.46 253.27,714.05 250.89,723.25 L 249.92 727.00 L 223.49 727.00 ZM 993.45 484.80 C993.27,485.12 993.01,485.43 992.67,485.81 C991.27,487.36 991.00,490.03 991.00,502.60 C991.00,527.45 989.05,537.38 982.85,544.02 C981.62,545.35 981.03,546.29 980.82,548.07 C980.74,547.39 980.62,547.00 980.48,547.00 C980.19,547.00 978.28,548.09 976.23,549.43 C967.66,555.02 961.06,556.37 940.13,556.79 C926.28,557.08 920.96,556.88 921.44,556.09 C921.82,555.48 921.43,555.00 920.56,555.00 C919.90,555.00 919.38,554.80 919.21,554.53 C919.22,554.47 919.26,554.41 919.32,554.34 C919.69,553.98 919.48,553.08 918.87,552.34 C918.05,551.35 918.05,551.00 918.88,551.00 C920.66,551.00 920.18,549.20 918.25,548.63 C916.14,548.00 934.40,548.89 938.11,549.60 C941.39,550.22 960.78,540.59 967.03,535.24 L 971.29 531.59 L 970.65 518.05 C970.30,510.60 969.72,502.81 969.37,500.75 C968.77,497.21 968.53,497.00 965.07,497.00 L 961.41 497.00 L 960.18 489.86 C958.62,480.75 959.33,479.74 961.09,488.56 C961.82,492.22 962.96,495.43 963.63,495.69 C966.77,496.90 989.60,488.29 993.45,484.80 ZM 1170.59 402.89 C1171.64,401.72 1173.51,400.38 1174.75,399.91 C1176.80,399.13 1177.00,398.40 1176.99,391.77 C1176.99,382.73 1175.73,378.03 1172.49,374.99 C1170.81,373.41 1170.35,372.40 1171.12,371.93 C1172.71,370.94 1171.27,369.00 1168.94,369.00 C1166.73,369.00 1166.45,367.95 1168.20,366.20 C1169.10,365.30 1169.12,364.72 1168.25,363.85 C1167.39,362.99 1166.47,363.12 1164.55,364.37 C1163.15,365.29 1162.00,366.47 1162.00,367.00 C1162.00,367.60 1161.04,367.59 1159.43,366.98 C1155.53,365.49 1145.01,365.81 1138.93,367.60 C1132.42,369.51 1122.79,374.47 1120.35,377.17 C1118.98,378.67 1118.83,379.51 1119.68,380.86 C1120.50,382.17 1120.43,383.24 1119.42,385.06 C1117.48,388.57 1117.70,391.11 1120.00,391.71 C1121.10,392.00 1122.00,393.03 1122.00,393.99 C1122.00,398.53 1127.42,398.91 1136.26,395.00 C1138.65,393.95 1141.53,393.33 1142.68,393.63 C1144.76,394.17 1151.05,391.47 1156.31,387.76 C1157.85,386.67 1159.28,385.95 1159.48,386.15 C1160.65,387.31 1167.00,401.74 1167.00,403.22 C1167.00,405.59 1168.27,405.47 1170.59,402.89 ZM 864.96 715.75 C865.11,715.83 865.27,715.89 865.44,715.95 C866.57,716.37 874.45,717.02 882.95,717.39 C887.20,717.57 891.29,717.80 894.48,718.02 L 894.48 718.02 C894.98,718.06 895.45,718.10 895.88,718.13 C893.55,718.24 893.66,718.27 896.50,718.90 C899.24,719.51 898.98,719.68 893.58,720.79 C883.73,722.81 871.00,721.97 874.91,719.56 C876.84,718.36 875.03,717.00 871.51,717.00 C869.65,717.00 866.99,716.57 865.60,716.04 C864.20,715.50 862.83,715.46 862.54,715.94 C862.24,716.42 859.52,718.21 856.50,719.91 C851.41,722.78 850.00,724.66 851.67,726.33 C852.03,726.70 863.51,727.00 877.17,727.00 L 829.23 727.00 L 834.03 708.07 L 836.42 698.75 L 843.67 670.50 L 849.28 670.20 L 854.89 669.90 L 855.42 673.20 C856.12,677.52 856.75,681.38 857.32,684.85 C857.38,685.27 857.45,685.70 857.51,686.14 C858.74,694.19 859.89,700.70 860.92,705.54 C861.74,709.61 862.38,712.00 863.01,713.46 C863.39,714.46 863.73,715.13 864.05,715.45 C864.15,715.54 864.46,715.65 864.96,715.75 ZM 299.00 393.00 L 299.00 453.00 L 277.00 453.00 L 277.00 393.00 ZM 758.00 567.50 L 758.00 573.00 L 697.00 573.00 L 697.00 562.00 L 705.00 562.00 L 705.00 551.00 L 726.35 551.00 C738.10,551.00 750.47,551.29 753.85,551.64 L 760.00 552.28 L 760.00 556.50 C760.00,559.53 759.55,562.00 759.00,562.00 C758.45,562.00 758.00,564.47 758.00,567.50 ZM 620.00 327.50 L 620.00 333.00 L 559.00 333.00 L 559.00 322.00 L 567.00 322.00 L 567.00 312.00 L 622.00 312.00 L 622.00 317.00 C622.00,319.75 621.55,322.00 621.00,322.00 C620.45,322.00 620.00,324.48 620.00,327.50 ZM 588.00 518.00 L 588.00 573.00 L 577.67 573.00 C571.98,573.00 567.03,572.70 566.67,572.33 C566.31,571.97 566.01,559.96 566.00,545.50 L 566.00 518.00 ZM 844.00 453.00 L 844.00 399.00 L 866.00 399.00 L 866.00 424.42 C866.00,438.40 865.73,450.55 865.39,451.42 C864.89,452.72 862.95,453.00 854.39,453.00 ZM 566.12 399.76 L 566.12 399.73 C566.22,399.33 571.06,399.00 577.00,399.00 L 588.00 399.00 L 588.00 453.00 L 577.67 453.00 C571.98,453.00 567.02,452.69 566.64,452.31 C566.36,452.02 566.13,445.33 566.06,436.03 C566.08,433.36 566.10,430.29 566.12,426.75 C566.18,412.39 566.18,400.29 566.12,399.76 ZM 421.00 518.00 L 442.00 518.00 L 442.00 573.00 L 421.00 573.00 ZM 703.00 305.41 L 703.00 279.00 L 724.00 279.00 L 724.00 333.00 L 703.00 333.00 L 703.00 306.00 ZM 411.00 279.00 L 432.00 279.00 L 432.00 333.00 L 411.00 333.00 ZM 752.00 279.00 L 773.00 279.00 L 773.00 333.00 L 752.00 333.00 L 752.00 279.00 ZM 700.00 453.00 L 700.00 399.00 L 721.00 399.00 L 721.00 453.00 ZM 795.00 453.00 L 795.00 399.00 L 816.00 399.00 L 816.00 453.00 ZM 277.00 281.29 L 277.02 279.00 L 298.00 279.00 L 298.00 333.00 L 277.00 333.00 ZM 506.00 259.00 L 463.00 259.00 L 463.00 233.00 L 506.00 233.00 ZM 406.66 395.43 C408.34,394.63 410.86,393.57 413.35,392.61 C417.63,391.06 421.17,389.97 421.41,390.13 C421.41,390.13 421.41,390.14 421.41,390.14 C421.46,390.19 421.70,390.80 422.10,391.87 L 422.10 391.87 C425.57,401.14 440.89,444.40 441.20,445.94 C441.40,446.91 439.37,448.16 435.04,449.74 C434.21,450.04 433.40,450.34 432.65,450.63 C428.54,451.90 424.90,452.64 424.58,452.12 C424.37,451.79 420.77,441.88 416.68,430.53 C415.44,427.05 414.18,423.53 413.02,420.32 C409.56,410.66 406.37,401.68 405.18,398.18 C405.09,397.87 404.99,397.53 404.89,397.17 C404.76,396.74 405.36,396.16 406.66,395.43 ZM 727.50 393.57 C729.86,392.68 731.68,391.98 733.10,391.48 C737.15,390.09 737.73,390.28 738.68,391.58 C738.70,391.60 738.72,391.63 738.73,391.65 C738.81,391.81 738.88,391.99 738.97,392.19 C742.61,400.77 758.01,446.17 757.54,446.93 C756.95,447.89 748.53,451.23 743.94,452.33 C741.40,452.94 741.29,452.71 731.73,425.72 C726.43,410.75 721.96,397.91 721.80,397.18 C721.62,396.38 723.84,394.97 727.50,393.57 ZM 506.00 264.00 L 506.00 289.00 L 463.00 289.00 L 463.00 264.00 ZM 463.00 294.00 L 506.00 294.00 L 506.00 319.00 L 463.00 319.00 ZM 506.00 325.00 L 506.00 350.00 L 463.00 350.00 L 463.00 325.00 ZM 506.00 380.00 L 463.00 380.00 L 463.00 355.00 L 506.00 355.00 ZM 463.00 385.00 L 506.00 385.00 L 506.00 410.00 L 463.00 410.00 ZM 506.00 441.00 L 463.00 441.00 L 463.00 416.00 L 506.00 416.00 ZM 463.00 471.00 L 463.00 446.00 L 506.00 446.00 L 506.00 471.00 ZM 463.00 476.00 L 506.00 476.00 L 506.00 501.00 L 463.00 501.00 ZM 506.00 532.00 L 463.00 532.00 L 463.00 507.00 L 506.00 507.00 ZM 463.00 562.00 L 463.00 537.00 L 506.00 537.00 L 506.00 562.00 ZM 463.00 567.00 L 506.00 567.00 L 506.00 592.00 L 463.00 592.00 ZM 626.00 523.00 L 626.00 526.23 L 625.77 547.75 L 625.50 572.50 L 615.75 572.79 L 606.00 573.07 L 606.00 526.23 L 606.03 523.00 ZM 626.00 453.00 L 606.00 453.00 L 606.00 404.00 L 626.00 404.00 ZM 672.97 521.00 L 673.00 524.25 L 673.00 573.00 L 655.00 573.00 L 655.00 521.00 ZM 317.00 284.00 L 336.00 284.00 L 336.00 333.00 L 317.00 333.00 ZM 792.00 284.00 L 811.00 284.00 L 811.00 333.00 L 792.00 333.00 ZM 386.00 282.00 L 386.00 333.00 L 368.00 333.00 L 368.00 282.00 ZM 678.00 282.00 L 678.00 333.00 L 660.00 333.00 L 660.00 282.00 ZM 890.00 282.00 L 890.00 333.00 L 872.00 333.00 L 872.00 282.00 ZM 657.00 453.00 L 657.00 402.00 L 675.00 402.00 L 675.00 453.00 ZM 783.00 504.00 L 783.00 573.00 L 771.00 573.00 L 771.00 504.00 ZM 639.97 504.00 L 640.00 507.41 L 640.00 573.00 L 628.00 573.00 L 628.00 504.00 ZM 351.00 265.00 L 351.00 333.00 L 339.00 333.00 L 339.00 265.00 ZM 643.00 265.00 L 643.00 333.00 L 631.00 333.00 L 631.00 265.00 ZM 814.00 265.00 L 826.00 265.00 L 826.00 333.00 L 814.00 333.00 ZM 628.00 453.00 L 628.00 385.00 L 639.97 385.00 L 640.00 388.40 L 640.00 453.00 ZM 843.00 265.00 L 849.12 265.00 C854.97,265.00 855.21,265.10 854.63,267.25 C854.30,268.49 854.02,283.79 854.01,301.25 L 854.00 333.00 L 843.00 333.00 ZM 364.00 381.00 L 364.00 453.00 L 354.00 453.00 L 354.00 381.00 ZM 375.32 530.29 C375.85,530.81 376.59,531.00 377.58,531.00 C377.81,531.00 378.00,528.75 378.00,526.00 L 378.00 521.00 L 396.00 521.00 L 396.00 573.00 L 385.00 573.00 L 384.90 595.75 C384.85,608.26 384.44,619.62 384.00,621.00 C384.44,619.62 384.85,600.90 384.90,579.40 C385.00,540.41 384.99,540.29 382.75,536.99 C379.91,532.82 377.24,530.73 373.55,530.04 C374.26,530.11 374.87,530.20 375.32,530.29 ZM 351.00 398.00 L 351.00 453.00 L 339.00 453.00 L 339.00 398.00 ZM 399.00 390.00 L 399.00 453.00 L 389.00 453.00 L 389.00 390.00 ZM 313.00 400.00 L 313.00 403.27 L 312.77 426.25 L 312.50 452.50 L 307.25 452.80 L 302.00 453.10 L 302.00 400.00 ZM 888.66 508.01 L 877.00 508.00 L 894.00 508.00 L 894.17 503.00 C894.26,500.25 894.37,497.25 894.42,496.33 C894.46,495.43 893.53,494.57 891.66,493.78 C893.86,494.51 896.70,495.20 900.16,495.84 L 904.82 496.71 L 904.28 489.51 C903.88,484.18 904.18,480.96 905.47,477.09 C907.64,470.57 908.45,470.86 906.46,477.46 C904.35,484.49 904.65,490.52 907.60,500.07 C910.06,508.04 911.89,525.17 910.85,530.51 C910.64,531.60 909.05,528.75 906.55,522.84 C905.99,521.44 905.43,520.06 904.89,518.76 L 900.50 508.02 ZM 362.23 529.97 C362.26,529.98 362.28,529.98 362.31,529.99 C358.36,530.11 353.31,530.28 347.77,530.47 C348.67,530.12 349.00,526.49 349.00,517.03 L 349.00 504.00 L 361.00 504.00 L 361.00 530.00 ZM 417.00 523.00 L 417.00 573.00 L 411.00 573.00 L 411.00 523.00 ZM 273.00 308.33 L 273.00 308.50 L 273.00 333.00 L 267.00 333.00 L 267.00 284.00 L 273.00 284.00 ZM 407.00 284.00 L 407.00 333.00 L 401.00 333.00 L 401.00 284.00 ZM 555.00 284.00 L 555.00 333.00 L 549.00 333.00 L 549.00 284.00 ZM 699.00 333.00 L 693.00 333.00 L 693.00 284.00 L 699.00 284.00 L 699.00 333.00 ZM 748.00 333.00 L 742.00 333.00 L 742.00 284.00 L 748.00 284.00 L 748.00 333.00 ZM 556.00 453.00 L 556.00 404.00 L 562.00 404.00 L 562.00 453.00 ZM 690.00 453.00 L 690.00 404.00 L 696.00 404.00 L 696.00 453.00 ZM 785.00 453.00 L 785.00 404.00 L 791.00 404.00 L 791.00 453.00 ZM 840.00 453.00 L 834.00 453.00 L 834.00 404.00 L 840.00 404.00 ZM 556.50 523.50 L 562.00 522.97 L 562.00 573.00 L 555.97 573.00 ZM 1205.99 516.75 L 1206.00 520.00 L 1196.75 519.83 C1183.90,519.60 1175.08,518.67 1177.25,517.78 C1178.51,517.26 1179.00,515.93 1179.00,513.03 L 1179.00 509.00 L 1191.88 509.00 L 1192.72 509.00 C1200.64,509.00 1203.82,509.00 1205.11,510.56 C1205.97,511.61 1205.97,513.36 1205.98,516.29 ZM 1130.88 534.81 C1130.66,539.69 1130.49,539.99 1128.07,539.87 C1121.60,539.55 1112.70,538.00 1111.46,536.97 C1110.70,536.34 1109.67,536.09 1109.16,536.40 C1107.82,537.23 1106.32,534.99 1105.83,531.47 L 1105.41 528.43 L 1111.49 528.82 C1115.43,529.07 1118.83,528.68 1121.15,527.71 C1123.37,526.78 1125.26,526.55 1126.11,527.09 C1126.88,527.57 1128.54,527.98 1129.81,527.98 C1131.08,527.99 1131.89,528.36 1131.62,528.81 C1131.34,529.26 1131.01,531.96 1130.88,534.81 ZM 264.96 538.25 C264.93,536.74 264.34,533.03 263.64,530.00 C262.45,524.87 262.15,524.48 259.18,524.19 C258.51,524.12 257.89,524.00 257.38,523.86 C257.84,523.95 258.38,524.00 258.95,524.00 C260.57,524.00 262.26,524.61 262.70,525.37 C263.67,527.03 268.01,527.95 278.25,528.67 C285.29,529.16 286.01,529.41 286.12,531.36 C286.19,532.64 286.40,532.90 286.65,532.00 C286.73,531.71 287.36,531.14 288.36,530.42 C287.20,531.39 286.69,532.21 286.48,533.15 C285.57,537.23 283.12,538.71 275.31,539.90 C265.19,541.45 265.01,541.42 264.96,538.25 ZM 813.50 519.00 L 823.25 519.00 L 816.99 519.00 C807.59,519.00 798.40,519.42 796.21,519.94 L 796.86 519.77 C797.06,519.77 797.30,519.72 797.58,519.61 C797.69,519.57 797.79,519.53 797.90,519.49 L 800.00 518.92 L 800.00 504.00 L 812.00 504.00 L 812.00 519.00 ZM 235.58 442.88 C237.74,443.38 240.10,443.62 240.83,443.40 C241.56,443.18 243.03,443.00 244.08,443.00 C245.42,443.00 246.00,442.30 246.00,440.70 C246.00,438.68 245.59,438.45 242.66,438.79 C239.59,439.15 235.13,438.29 230.75,436.50 C229.43,435.96 229.00,436.27 229.00,437.77 C229.00,440.37 230.78,441.76 235.58,442.88 ZM 1062.20 511.25 C1061.63,511.94 1061.01,514.08 1060.83,516.00 C1060.40,520.52 1059.47,519.00 1058.10,511.57 C1056.54,503.13 1056.63,502.64 1060.25,500.56 L 1063.50 498.69 L 1061.00 501.47 L 1058.50 504.26 L 1061.87 503.78 L 1065.24 503.31 L 1062.87 505.13 L 1060.50 506.96 L 1063.00 507.01 L 1065.50 507.07 L 1063.00 508.50 C1061.62,509.29 1061.12,509.95 1061.87,509.96 C1062.86,509.99 1062.95,510.35 1062.20,511.25 ZM 284.05 484.97 C282.00,484.92 274.68,482.99 267.69,480.65 C258.30,477.51 254.54,476.65 253.58,477.43 C252.98,477.92 251.91,485.75 250.99,494.57 L 252.42 477.72 L 255.67 476.36 C258.75,475.08 259.64,475.28 271.92,480.16 ZM 1083.92 493.67 C1084.15,493.85 1084.15,494.16 1083.92,494.35 C1083.69,494.54 1078.82,492.65 1073.09,490.15 C1063.73,486.06 1062.94,485.52 1065.23,484.76 C1067.33,484.06 1069.17,484.74 1075.64,488.62 C1079.96,491.22 1083.69,493.49 1083.92,493.67 ZM 1124.00 413.00 C1127.21,416.21 1129.29,415.64 1128.50,411.75 C1127.07,404.60 1125.96,403.44 1123.20,406.20 C1121.42,407.98 1121.74,410.74 1124.00,413.00 ZM 309.32 476.17 C307.54,476.44 304.30,477.74 298.00,480.50 C293.14,482.62 288.56,484.21 285.82,484.76 L 293.49 480.18 C301.38,475.46 302.43,475.10 306.56,475.66 C307.56,475.80 308.52,475.98 309.32,476.17 ZM 1102.78 490.39 C1096.34,492.40 1090.26,494.33 1089.28,494.68 C1088.30,495.03 1087.72,495.06 1088.00,494.75 C1089.20,493.39 1114.23,484.02 1115.15,484.59 C1116.90,485.68 1114.87,486.63 1102.78,490.39 ZM 920.84 435.33 C921.75,435.57 923.03,435.82 923.68,435.88 C924.97,436.01 928.00,433.33 928.00,432.06 C928.00,430.97 919.69,429.92 918.72,430.89 C917.57,432.02 918.91,434.82 920.84,435.33 ZM 1151.50 434.07 C1150.08,434.63 1150.96,434.88 1154.50,434.92 C1161.76,435.00 1164.00,434.18 1164.00,431.47 L 1164.00 429.17 L 1158.75 431.22 C1155.86,432.34 1152.60,433.63 1151.50,434.07 ZM 865.41 537.63 C864.30,534.73 865.43,532.50 868.01,532.50 C870.11,532.50 870.50,532.97 870.50,535.50 C870.50,537.85 870.01,538.57 868.25,538.82 C866.92,539.01 865.75,538.52 865.41,537.63 ZM 1143.50 413.00 C1144.82,415.14 1145.51,413.77 1145.77,408.49 C1145.92,405.47 1145.63,403.00 1145.13,403.00 C1144.03,403.00 1142.63,411.59 1143.50,413.00 ZM 362.33 715.00 C361.41,715.00 359.74,715.79 358.62,716.75 C356.59,718.49 356.59,718.49 358.31,715.75 C360.33,712.55 358.91,712.09 356.00,715.00 C354.90,716.10 354.00,716.62 354.00,716.15 C354.00,713.92 357.95,711.83 360.93,712.49 C364.17,713.20 365.17,715.00 362.33,715.00 ZM 919.57 424.33 C920.48,426.68 921.48,426.40 921.63,423.75 C921.71,422.51 922.10,420.49 922.50,419.25 C922.97,417.82 922.82,417.00 922.12,417.00 C921.50,417.00 921.00,417.81 921.00,418.80 C921.00,419.79 920.54,421.06 919.97,421.63 C919.40,422.20 919.22,423.42 919.57,424.33 ZM 1139.00 406.00 C1139.00,404.90 1138.35,404.00 1137.56,404.00 C1135.79,404.00 1134.66,405.65 1135.50,407.00 C1136.59,408.76 1139.00,408.07 1139.00,406.00 ZM 916.33 411.98 C918.75,411.97 919.14,411.74 918.00,411.00 C915.82,409.59 913.65,409.78 911.44,411.58 C909.66,413.03 909.66,413.11 911.33,412.58 C912.34,412.26 914.59,411.99 916.33,411.98 ZM 1156.82 403.67 C1157.04,402.54 1156.47,402.00 1155.07,402.00 C1153.93,402.00 1153.00,402.60 1153.00,403.33 C1153.00,406.40 1156.24,406.68 1156.82,403.67 ZM 916.55 417.91 C917.58,416.25 915.27,414.33 913.89,415.71 C912.73,416.87 913.46,419.00 915.00,419.00 C915.49,419.00 916.18,418.51 916.55,417.91 ZM 238.55 413.91 C239.58,412.25 237.27,410.33 235.89,411.71 C234.73,412.87 235.46,415.00 237.00,415.00 C237.49,415.00 238.18,414.51 238.55,413.91 ZM 254.50 414.93 C254.50,414.16 253.71,413.38 252.75,413.19 C251.03,412.86 250.31,414.98 251.69,416.35 C252.74,417.40 254.50,416.51 254.50,414.93 ZM 933.00 417.50 C933.00,416.67 932.11,416.00 931.00,416.00 C929.01,416.00 928.40,417.07 929.67,418.33 C930.88,419.55 933.00,419.02 933.00,417.50 ZM 377.50 715.00 C376.50,716.10 375.52,717.00 375.31,717.00 C375.10,717.00 375.41,716.10 376.00,715.00 C376.59,713.90 377.57,713.00 378.19,713.00 C378.81,713.00 378.50,713.90 377.50,715.00 ZM 786.21 528.13 C786.09,528.37 785.98,528.61 785.89,528.84 C785.39,530.13 784.98,549.46 784.98,571.83 C784.98,549.48 785.27,530.38 785.63,529.36 C785.77,528.97 785.97,528.55 786.21,528.13 ZM 349.76 724.81 C358.98,724.78 370.63,724.53 379.42,724.15 C378.60,724.19 377.73,724.23 376.80,724.27 C368.79,724.65 357.31,724.87 349.76,724.81 ZM 978.52 576.24 C978.17,577.80 977.79,579.20 977.39,580.36 C976.49,583.00 975.15,585.22 973.18,587.12 C975.67,584.55 977.31,581.12 978.52,576.24 ZM 983.64 465.07 L 983.79 465.27 C986.38,468.72 989.82,474.33 991.42,477.75 L 991.52 477.95 C989.39,473.88 986.25,468.71 983.64,465.07 ZM 888.15 479.86 C890.26,473.68 894.12,467.12 898.21,462.90 C894.23,467.00 890.42,473.65 888.15,479.86 ZM 958.32 594.00 C954.39,594.95 949.73,595.75 944.21,596.45 C943.00,596.60 941.67,596.76 940.28,596.92 C947.26,596.07 953.67,595.04 958.32,594.00 ZM 309.53 498.64 C310.66,488.35 311.63,477.95 311.42,476.90 C311.45,476.92 311.47,476.95 311.48,476.97 C311.75,477.40 310.72,488.08 309.53,498.64 ZM 889.98 493.16 C887.88,492.44 886.71,491.83 886.26,490.59 C886.76,491.49 888.00,492.35 889.98,493.16 ZM 264.72 413.64 C264.41,413.28 264.04,413.05 263.64,413.01 C264.11,413.03 264.46,413.16 264.72,413.64 ZM 366.47 529.86 C365.38,529.89 364.11,529.93 362.68,529.97 C362.70,529.97 362.72,529.96 362.74,529.96 Z" fill="rgb(221,243,254)"/>
<path d="M 851.67 726.33 C850.00,724.66 851.41,722.78 856.50,719.91 C859.52,718.21 862.24,716.42 862.54,715.94 C862.83,715.46 864.20,715.50 865.60,716.04 C866.99,716.57 869.65,717.00 871.51,717.00 C875.03,717.00 876.84,718.36 874.91,719.56 C871.00,721.97 883.73,722.81 893.58,720.79 C898.98,719.68 899.24,719.51 896.50,718.90 C893.55,718.25 893.54,718.23 896.17,718.12 C900.84,717.91 902.00,718.90 902.00,723.11 L 902.00 727.00 L 877.17 727.00 C863.51,727.00 852.03,726.70 851.67,726.33 ZM 334.63 724.21 C334.02,723.22 334.44,717.90 335.58,712.25 C336.01,710.11 336.50,710.00 345.17,710.00 C353.78,710.00 354.22,710.10 352.81,711.75 C350.06,714.95 349.64,716.53 352.15,714.25 C353.51,713.01 355.11,712.00 355.69,712.00 C356.28,712.00 357.32,711.33 358.00,710.50 C358.91,709.40 361.32,709.00 366.96,709.00 C371.20,709.00 374.97,709.30 375.34,709.68 C375.71,710.05 375.00,711.51 373.76,712.92 C371.58,715.39 371.58,715.42 373.68,713.65 C375.30,712.29 376.68,711.99 379.00,712.50 C382.10,713.18 382.12,713.22 380.32,715.34 C378.52,717.48 378.52,717.49 380.58,715.75 C383.13,713.60 385.22,713.54 389.04,715.52 C392.03,717.07 393.97,721.43 392.37,723.03 C390.99,724.41 335.46,725.55 334.63,724.21 ZM 362.33 715.00 C365.17,715.00 364.17,713.20 360.93,712.49 C357.95,711.83 354.00,713.92 354.00,716.15 C354.00,716.62 354.90,716.10 356.00,715.00 C358.91,712.09 360.33,712.55 358.31,715.75 C356.59,718.49 356.59,718.49 358.62,716.75 C359.74,715.79 361.41,715.00 362.33,715.00 ZM 377.50 715.00 C378.50,713.90 378.81,713.00 378.19,713.00 C377.57,713.00 376.59,713.90 376.00,715.00 C375.41,716.10 375.10,717.00 375.31,717.00 C375.52,717.00 376.50,716.10 377.50,715.00 ZM 130.00 659.11 C114.09,653.97 103.19,643.42 98.06,628.17 C96.12,622.41 96.00,619.78 96.00,582.37 L 96.00 542.68 L 98.50 538.42 C100.30,535.34 102.37,533.51 105.96,531.83 L 110.92 529.50 L 110.96 493.90 C111.00,460.72 111.12,458.20 112.83,456.65 C114.47,455.17 118.95,455.00 156.25,455.00 L 197.85 455.00 L 193.00 464.25 C182.61,484.05 166.04,527.57 166.01,535.12 C166.01,537.27 166.83,539.79 168.07,541.37 L 170.15 544.00 L 207.07 544.00 L 244.00 544.00 L 244.00 575.92 L 244.00 607.84 L 264.75 607.29 C286.29,606.72 298.44,607.75 302.66,610.51 C303.85,611.29 306.00,614.42 307.44,617.47 C310.03,622.94 322.00,657.85 322.00,659.93 C322.00,660.68 294.57,660.98 228.75,660.95 C142.19,660.90 135.11,660.76 130.00,659.11 ZM 826.60 656.41 C807.91,651.88 792.64,637.52 786.95,619.11 C785.12,613.18 784.98,609.72 784.98,571.95 C784.98,549.53 785.39,530.13 785.89,528.84 C787.23,525.40 792.16,521.10 796.07,519.98 C797.95,519.44 807.36,519.00 816.99,519.00 L 834.50 519.00 L 843.91 540.00 L 853.32 561.00 L 856.86 561.00 L 860.39 561.00 L 855.93 563.83 C853.47,565.39 850.23,568.12 848.73,569.91 C846.37,572.72 846.00,574.03 846.00,579.70 C846.00,587.48 848.34,614.02 851.05,637.00 C853.83,660.60 854.85,658.02 842.75,657.92 C837.11,657.87 829.85,657.19 826.60,656.41 ZM 908.00 655.90 C908.00,653.21 911.85,608.83 912.56,603.34 L 913.10 599.18 L 922.80 598.56 C928.13,598.21 937.77,597.26 944.21,596.45 C965.71,593.71 974.26,589.57 977.39,580.36 C979.53,574.10 981.18,560.86 980.81,553.02 C980.54,547.37 980.80,546.23 982.85,544.02 C989.05,537.38 991.00,527.45 991.00,502.60 C991.00,490.03 991.27,487.36 992.67,485.81 C994.25,484.07 994.17,483.59 991.42,477.75 C989.82,474.33 986.38,468.72 983.79,465.27 L 979.08 459.00 L 1044.97 459.00 L 1110.87 459.00 L 1111.56 456.83 C1112.68,453.29 1121.09,444.99 1126.14,442.43 C1132.46,439.23 1141.34,437.85 1143.93,439.66 C1147.59,442.22 1154.33,442.40 1161.82,440.12 C1171.58,437.16 1181.88,437.26 1188.50,440.38 C1195.16,443.52 1199.07,448.12 1201.97,456.25 L 1202.95 459.00 L 1234.82 459.00 C1264.43,459.00 1266.81,459.13 1268.34,460.83 C1269.81,462.45 1270.00,466.26 1270.00,494.27 C1270.00,516.25 1270.34,526.09 1271.10,526.56 C1271.71,526.94 1273.05,529.10 1274.08,531.37 C1275.81,535.18 1275.96,538.55 1275.98,575.04 C1276.00,618.54 1275.73,621.10 1269.86,632.12 C1266.10,639.16 1256.28,648.81 1249.24,652.38 C1238.22,657.96 1238.13,657.97 1154.39,657.99 L 1077.28 658.00 L 1076.66 652.75 C1075.13,639.55 1072.00,607.32 1072.00,604.67 L 1072.00 601.71 L 1101.50 602.22 L 1131.00 602.74 L 1131.00 574.87 L 1131.00 547.00 L 1127.75 547.00 C1121.21,547.00 1088.58,551.13 1079.18,553.14 C1073.85,554.28 1062.80,555.58 1054.61,556.02 C1035.63,557.06 1029.78,557.71 1017.63,560.12 C1004.29,562.78 998.40,565.84 995.94,571.40 C990.87,582.86 988.00,606.32 988.00,636.24 L 988.00 658.00 L 948.00 658.00 C908.06,658.00 908.00,658.00 908.00,655.90 ZM 1130.88 534.81 C1131.01,531.96 1131.34,529.26 1131.62,528.81 C1131.89,528.36 1131.08,527.99 1129.81,527.98 C1128.54,527.98 1126.88,527.57 1126.11,527.09 C1125.26,526.55 1123.37,526.78 1121.15,527.71 C1118.83,528.68 1115.43,529.07 1111.49,528.82 L 1105.41 528.43 L 1105.83 531.47 C1106.32,534.99 1107.82,537.23 1109.16,536.40 C1109.67,536.09 1110.70,536.34 1111.46,536.97 C1112.70,538.00 1121.60,539.55 1128.07,539.87 C1130.49,539.99 1130.66,539.69 1130.88,534.81 ZM 1205.99 516.75 C1205.95,508.84 1206.24,509.00 1191.88,509.00 L 1179.00 509.00 L 1179.00 513.03 C1179.00,515.93 1178.51,517.26 1177.25,517.78 C1175.08,518.67 1183.90,519.60 1196.75,519.83 L 1206.00 520.00 L 1205.99 516.75 ZM 1062.20 511.25 C1062.95,510.35 1062.86,509.99 1061.87,509.96 C1061.12,509.95 1061.62,509.29 1063.00,508.50 L 1065.50 507.07 L 1063.00 507.01 L 1060.50 506.96 L 1062.87 505.13 L 1065.24 503.31 L 1061.87 503.78 L 1058.50 504.26 L 1061.00 501.47 L 1063.50 498.69 L 1060.25 500.56 C1056.63,502.64 1056.54,503.13 1058.10,511.57 C1059.47,519.00 1060.40,520.52 1060.83,516.00 C1061.01,514.08 1061.63,511.94 1062.20,511.25 ZM 1083.92 493.67 C1083.69,493.49 1079.96,491.22 1075.64,488.62 C1069.17,484.74 1067.33,484.06 1065.23,484.76 C1062.94,485.52 1063.73,486.06 1073.09,490.15 C1078.82,492.65 1083.69,494.54 1083.92,494.35 C1084.15,494.16 1084.15,493.85 1083.92,493.67 ZM 1102.78 490.39 C1114.87,486.63 1116.90,485.68 1115.15,484.59 C1114.23,484.02 1089.20,493.39 1088.00,494.75 C1087.72,495.06 1088.30,495.03 1089.28,494.68 C1090.26,494.33 1096.34,492.40 1102.78,490.39 ZM 1023.22 636.75 C1023.76,614.31 1024.47,610.51 1028.87,606.59 C1030.05,605.54 1031.15,604.86 1031.32,605.09 C1031.48,605.32 1032.36,609.33 1033.26,614.00 C1034.16,618.67 1036.23,629.03 1037.86,637.00 C1039.48,644.97 1041.07,652.96 1041.38,654.75 L 1041.95 658.00 L 1032.33 658.00 L 1022.72 658.00 L 1023.22 636.75 ZM 348.78 628.00 C346.01,616.07 342.97,599.70 343.43,599.23 C343.75,598.92 345.09,599.67 346.41,600.92 C348.57,602.94 348.89,604.32 349.51,614.34 C349.89,620.48 350.02,626.62 349.78,628.00 L 349.36 630.50 L 348.78 628.00 ZM 383.10 609.82 C382.91,584.10 380.15,573.52 372.50,569.28 C363.70,564.40 342.20,561.12 317.89,560.94 L 303.28 560.84 L 299.86 546.67 L 296.44 532.50 L 299.97 532.31 C308.45,531.85 365.96,529.77 370.36,529.77 C375.83,529.77 379.15,531.71 382.75,536.99 C384.99,540.29 385.00,540.41 384.90,579.40 C384.85,600.90 384.44,619.62 384.00,621.00 C383.51,622.54 383.16,618.23 383.10,609.82 ZM 286.12 531.36 C286.01,529.41 285.29,529.16 278.25,528.67 C268.01,527.95 263.67,527.03 262.70,525.37 C262.26,524.61 260.57,524.00 258.95,524.00 C257.33,524.00 256.00,523.59 256.00,523.08 C256.00,522.57 254.66,521.86 253.01,521.50 C251.37,521.14 249.77,520.44 249.46,519.94 C248.37,518.17 252.21,478.55 253.58,477.43 C254.54,476.65 258.30,477.51 267.69,480.65 C274.74,483.01 282.12,484.95 284.11,484.97 C286.24,484.99 291.90,483.17 298.00,480.50 C308.49,475.91 310.49,475.36 311.40,476.83 C311.98,477.78 307.56,518.28 306.73,519.62 C306.43,520.10 301.88,522.75 296.62,525.50 C291.37,528.25 286.88,531.17 286.65,532.00 C286.40,532.90 286.19,532.64 286.12,531.36 ZM 877.01 495.25 C877.01,480.67 877.78,477.04 882.28,470.34 C884.67,466.78 887.13,464.70 891.84,462.27 C895.32,460.47 899.03,459.00 900.09,459.00 C901.65,459.00 901.30,459.71 898.21,462.90 C893.56,467.69 889.22,475.50 887.39,482.35 C885.17,490.70 885.42,491.64 890.25,493.25 C893.06,494.19 894.47,495.23 894.42,496.33 C894.37,497.25 894.26,500.25 894.17,503.00 L 894.00 508.00 L 885.50 508.00 L 877.00 508.00 L 877.01 495.25 ZM 925.00 446.61 C925.00,444.64 925.65,444.10 928.75,443.54 C930.81,443.16 933.99,441.99 935.81,440.93 C939.69,438.66 941.00,438.51 941.00,440.31 C941.00,442.14 936.07,446.66 932.68,447.94 C927.76,449.80 925.00,449.32 925.00,446.61 ZM 235.58 442.88 C230.78,441.76 229.00,440.37 229.00,437.77 C229.00,436.27 229.43,435.96 230.75,436.50 C235.13,438.29 239.59,439.15 242.66,438.79 C245.59,438.45 246.00,438.68 246.00,440.70 C246.00,442.30 245.42,443.00 244.08,443.00 C243.03,443.00 241.56,443.18 240.83,443.40 C240.10,443.62 237.74,443.38 235.58,442.88 ZM 920.84 435.33 C918.91,434.82 917.57,432.02 918.72,430.89 C919.69,429.92 928.00,430.97 928.00,432.06 C928.00,433.33 924.97,436.01 923.68,435.88 C923.03,435.82 921.75,435.57 920.84,435.33 ZM 1151.50 434.07 C1152.60,433.63 1155.86,432.34 1158.75,431.22 L 1164.00 429.17 L 1164.00 431.47 C1164.00,434.18 1161.76,435.00 1154.50,434.92 C1150.96,434.88 1150.08,434.63 1151.50,434.07 ZM 919.57 424.33 C919.22,423.42 919.40,422.20 919.97,421.63 C920.54,421.06 921.00,419.79 921.00,418.80 C921.00,417.81 921.50,417.00 922.12,417.00 C922.82,417.00 922.97,417.82 922.50,419.25 C922.10,420.49 921.71,422.51 921.63,423.75 C921.48,426.40 920.48,426.68 919.57,424.33 ZM 902.57 422.08 C900.35,419.63 900.87,416.14 903.75,414.24 C905.99,412.76 906.00,412.77 906.00,418.38 C906.00,424.39 905.32,425.12 902.57,422.08 ZM 260.39 421.58 C259.57,419.43 261.90,413.00 263.51,413.00 C265.22,413.00 266.34,416.37 265.50,419.00 C264.60,421.82 261.16,423.57 260.39,421.58 ZM 1124.00 413.00 C1121.74,410.74 1121.42,407.98 1123.20,406.20 C1125.96,403.44 1127.07,404.60 1128.50,411.75 C1129.29,415.64 1127.21,416.21 1124.00,413.00 ZM 1143.50 413.00 C1142.63,411.59 1144.03,403.00 1145.13,403.00 C1145.63,403.00 1145.92,405.47 1145.77,408.49 C1145.51,413.77 1144.82,415.14 1143.50,413.00 Z" fill="rgb(248,98,126)"/>
</g>
</svg>